<?xml version="1.0" standalone="no"?>
<!DOCTYPE svg PUBLIC "-//W3C//DTD SVG 20010904//EN"
 "http://www.w3.org/TR/2001/REC-SVG-20010904/DTD/svg10.dtd">
<svg version="1.0" xmlns="http://www.w3.org/2000/svg"
 width="3553.000000pt" height="2000.000000pt" viewBox="0 0 3553.000000 2000.000000"
 preserveAspectRatio="xMidYMid meet">
<metadata>
Created by potrace 1.16, written by Peter Selinger 2001-2019
</metadata>
<g transform="translate(0.000000,2000.000000) scale(0.100000,-0.100000)"
fill="#000000" stroke="none">
<path d="M13987 19173 c-4 -3 -7 -215 -7 -471 l0 -464 163 4 c178 4 202 11
250 68 36 42 47 89 47 194 0 128 -23 189 -85 223 -18 10 -17 13 13 38 17 14
36 43 42 63 15 54 13 207 -4 245 -17 42 -66 83 -114 97 -41 11 -295 14 -305 3z
m246 -132 c35 -13 50 -60 45 -136 -5 -82 -23 -103 -96 -112 l-52 -6 0 132 0
131 39 0 c22 0 51 -4 64 -9z m31 -403 c22 -19 27 -35 32 -93 8 -89 -7 -148
-41 -163 -14 -7 -48 -12 -75 -12 l-50 0 0 145 0 145 54 0 c43 0 61 -5 80 -22z"/>
<path d="M14635 19168 c-5 -16 -145 -898 -145 -915 0 -9 19 -13 64 -13 l64 0
6 33 c3 17 8 56 12 85 l7 52 92 0 93 0 12 -85 12 -85 75 0 75 0 -6 28 c-3 15
-35 212 -71 437 -35 226 -67 425 -70 443 l-6 32 -105 0 c-75 0 -106 -4 -109
-12z m134 -380 c17 -114 31 -217 31 -228 0 -18 -6 -20 -65 -20 -59 0 -65 2
-65 20 0 12 14 111 30 222 17 110 30 205 30 211 0 39 12 -26 39 -205z"/>
<path d="M15070 18710 l0 -470 65 0 65 0 0 332 c0 182 2 329 5 326 3 -3 44
-144 91 -314 46 -170 87 -317 90 -326 4 -15 18 -18 80 -18 l74 0 0 470 0 470
-65 0 -65 0 -1 -277 0 -278 -77 278 -77 277 -92 0 -93 0 0 -470z"/>
<path d="M15640 18710 l0 -470 65 0 65 0 1 333 c0 210 4 325 10 312 5 -11 41
-137 79 -280 39 -143 78 -284 86 -312 l15 -53 75 0 74 0 0 470 0 470 -65 0
-65 0 -1 -277 0 -278 -77 278 -77 277 -92 0 -93 0 0 -470z"/>
<path d="M16210 18710 l0 -470 200 0 200 0 0 65 0 65 -125 0 -125 0 0 140 0
140 100 0 100 0 0 65 0 65 -100 0 -100 0 0 135 0 135 125 0 125 0 0 65 0 65
-200 0 -200 0 0 -470z"/>
<path d="M16700 18710 l0 -470 75 0 75 0 0 190 0 190 40 0 c51 0 85 -16 99
-47 6 -13 11 -78 11 -147 0 -68 3 -138 6 -155 l7 -31 72 0 72 0 -3 48 c-2 26
-5 104 -8 173 -4 139 -21 192 -71 219 l-26 14 26 19 c50 37 68 91 69 207 0
123 -13 168 -59 209 -48 42 -91 51 -247 51 l-138 0 0 -470z m278 316 c14 -14
17 -36 17 -121 0 -126 -11 -145 -94 -153 l-51 -5 0 153 0 152 56 -4 c33 -3 62
-11 72 -22z"/>
<path d="M17410 19115 l0 -65 75 0 75 0 0 -405 0 -405 75 0 75 0 0 405 0 405
75 0 75 0 0 65 0 65 -225 0 -225 0 0 -65z"/>
<path d="M17920 18710 l0 -470 200 0 200 0 0 65 0 65 -125 0 -125 0 0 140 0
140 100 0 100 0 0 65 0 65 -100 0 -100 0 0 135 0 135 125 0 125 0 0 65 0 65
-200 0 -200 0 0 -470z"/>
<path d="M18420 18710 l0 -470 65 0 65 0 1 323 1 322 54 -315 c29 -173 53
-318 53 -322 1 -5 32 -8 70 -8 l68 0 21 133 c11 72 33 218 49 322 l28 190 3
-322 2 -323 70 0 70 0 0 470 0 470 -103 0 -102 0 -44 -297 c-24 -163 -47 -310
-51 -327 -8 -37 -7 -42 -71 357 l-43 267 -103 0 -103 0 0 -470z"/>
<path d="M19140 18710 l0 -470 75 0 75 0 0 175 0 175 53 0 c105 0 172 33 210
103 20 38 22 56 22 192 0 127 -3 155 -19 185 -48 91 -99 110 -288 110 l-128 0
0 -470z m276 315 c15 -21 20 -250 6 -272 -11 -17 -58 -33 -98 -33 l-34 0 0
166 0 166 56 -4 c40 -3 61 -10 70 -23z"/>
<path d="M19650 18710 l0 -470 195 0 195 0 0 65 0 65 -120 0 -120 0 0 405 0
405 -75 0 -75 0 0 -470z"/>
<path d="M20152 18717 c-40 -254 -73 -465 -72 -469 0 -5 29 -8 64 -8 l64 0 11
63 c6 35 11 73 11 85 0 21 4 22 93 22 l94 0 12 -85 13 -85 75 0 75 0 -6 28
c-5 24 -146 901 -146 909 0 2 -48 3 -107 3 l-108 0 -73 -463z m212 36 l32
-213 -68 0 c-65 0 -68 1 -68 23 0 13 14 112 30 220 17 108 31 203 31 209 2 24
12 -27 43 -239z"/>
<path d="M20610 19115 l0 -65 75 0 75 0 0 -405 0 -405 75 0 75 0 0 405 0 405
75 0 75 0 0 65 0 65 -225 0 -225 0 0 -65z"/>
<path d="M21130 18710 l0 -470 200 0 200 0 0 65 0 65 -125 0 -125 0 0 140 0
140 100 0 100 0 0 65 0 65 -100 0 -100 0 0 135 0 135 125 0 125 0 0 65 0 65
-200 0 -200 0 0 -470z"/>
<path d="M16800 17665 l0 -205 45 0 45 0 0 117 0 118 57 -93 c75 -124 86 -124
165 8 l58 94 0 -122 0 -122 45 0 45 0 0 205 0 205 -40 0 -40 0 -72 -125 c-40
-68 -76 -125 -79 -125 -3 0 -39 56 -79 125 -74 125 -75 125 -112 125 l-38 0 0
-205z"/>
<path d="M17350 17725 c0 -126 3 -151 20 -185 27 -54 80 -80 160 -80 80 0 133
26 160 80 17 34 20 59 20 185 l0 145 -44 0 -45 0 -3 -151 c-3 -145 -4 -152
-27 -170 -13 -10 -38 -19 -56 -19 -82 0 -95 27 -95 205 l0 135 -45 0 -45 0 0
-145z"/>
<path d="M17854 17850 c-46 -23 -64 -53 -64 -109 0 -54 34 -85 118 -106 37
-10 77 -24 90 -32 28 -17 28 -49 1 -64 -28 -15 -115 -7 -157 13 -32 17 -32 17
-48 -14 -15 -30 -15 -32 2 -45 46 -34 178 -44 238 -19 48 20 76 61 76 111 0
36 -5 48 -30 69 -17 14 -50 30 -73 36 -108 28 -122 34 -125 59 -3 15 3 30 14
38 24 18 99 16 136 -3 32 -17 38 -14 56 28 10 25 9 27 -29 42 -57 23 -154 21
-205 -4z"/>
<path d="M18180 17665 l0 -205 45 0 45 0 0 205 0 205 -45 0 -45 0 0 -205z"/>
<path d="M18475 17851 c-48 -21 -102 -80 -110 -119 -4 -15 -8 -36 -10 -46 -2
-11 1 -42 6 -69 13 -57 55 -109 110 -138 71 -36 215 -18 256 33 11 12 8 19
-12 38 l-25 24 -39 -22 c-59 -34 -113 -30 -158 12 -33 30 -37 39 -41 95 -4 60
-4 61 36 101 34 35 46 40 84 40 31 0 56 -8 81 -24 l35 -24 26 27 c25 26 26 28
8 44 -53 48 -174 62 -247 28z"/>
<path d="M4462 10008 l3 -6711 130 -24 c359 -65 761 -224 1040 -410 47 -31 50
-32 57 -13 4 11 17 20 28 20 28 0 38 -29 15 -46 -10 -8 -17 -15 -14 -17 2 -1
47 -34 99 -73 52 -40 105 -75 117 -78 12 -4 25 -15 28 -26 3 -10 25 -35 48
-55 91 -80 168 -159 251 -257 61 -72 93 -102 109 -103 18 0 22 -6 23 -30 1
-20 18 -54 48 -94 45 -62 157 -243 190 -308 l17 -33 12209 0 12210 0 2 4278 3
4277 104 7 c541 36 1038 376 1270 869 243 517 182 1115 -161 1569 -264 351
-685 578 -1125 607 l-93 6 0 979 c0 928 -1 979 -17 974 -103 -31 -379 -31
-528 -1 -270 54 -514 185 -705 375 -251 251 -400 596 -400 926 l0 104 -12480
0 -12480 0 2 -6712z m20878 5877 l0 -84 83 -3 82 -3 -4 -35 c-1 -19 -8 -38
-14 -42 -6 -3 -41 -4 -79 -1 l-68 6 0 -87 0 -86 -45 0 -45 0 0 84 0 84 -82 -1
-83 -1 0 39 0 40 83 3 82 3 0 78 c0 43 3 81 7 84 3 4 24 7 45 7 l38 0 0 -85z
m-11512 31 c108 -29 201 -108 250 -214 23 -49 27 -70 27 -152 0 -82 -4 -103
-27 -152 -37 -81 -108 -152 -187 -191 -59 -28 -75 -32 -156 -32 -80 0 -97 4
-155 31 -158 75 -246 235 -220 402 36 221 253 365 468 308z m-3050 -53 c2 -16
-18 -47 -67 -107 -39 -46 -71 -88 -71 -93 0 -6 36 -52 80 -103 76 -87 106
-128 98 -134 -2 -2 -33 -6 -70 -9 l-66 -6 -78 94 c-73 89 -104 116 -90 79 3
-9 6 -33 6 -53 0 -31 5 -40 25 -49 18 -9 25 -19 25 -41 0 -36 -15 -41 -132
-41 l-88 0 0 34 c0 27 5 36 21 41 21 7 21 10 15 149 -7 133 -9 142 -32 161
-16 14 -24 31 -24 53 l0 32 58 0 c31 0 80 3 108 6 l52 6 4 -36 c3 -32 0 -39
-21 -49 -23 -11 -25 -17 -22 -67 1 -30 4 -56 6 -58 1 -2 28 27 59 65 47 56 54
69 42 81 -7 7 -11 24 -8 37 5 27 29 33 117 31 44 -1 50 -4 53 -23z m448 12 c7
-2 11 -29 10 -72 -1 -64 -2 -68 -25 -71 -18 -3 -32 5 -51 28 -22 27 -35 33
-78 38 l-52 5 0 -57 0 -56 73 0 72 0 -4 -51 -3 -51 -62 7 c-33 4 -65 8 -71 9
-6 0 -10 -23 -10 -53 l0 -54 60 1 c52 0 62 3 80 26 13 17 31 26 48 26 30 0 33
-14 21 -101 l-6 -44 -191 6 c-106 3 -193 7 -194 8 -2 0 -3 16 -3 35 0 27 5 35
24 40 21 5 24 13 30 82 3 43 6 109 6 149 0 66 -2 73 -25 85 -24 13 -35 57 -19
73 7 6 348 -1 370 -8z m389 -30 c77 -9 143 -20 147 -24 4 -4 5 -37 1 -74 -6
-64 -7 -67 -32 -67 -19 0 -32 9 -45 31 -17 29 -60 54 -75 44 -5 -2 -13 -60
-20 -127 -7 -68 -15 -131 -17 -140 -3 -10 5 -26 20 -39 17 -15 26 -33 26 -52
0 -29 0 -30 -47 -23 -27 3 -81 9 -120 12 l-73 7 0 38 c0 37 2 39 30 39 23 0
31 5 35 23 9 41 32 272 28 280 -10 17 -49 5 -79 -24 -25 -24 -36 -29 -58 -23
-29 7 -30 13 -9 118 l5 29 72 -6 c39 -3 134 -13 211 -22z m-1386 -10 c6 -3 11
-37 11 -75 0 -65 -1 -68 -26 -74 -22 -6 -32 -1 -60 29 -33 36 -35 37 -86 30
-29 -4 -57 -13 -61 -19 -4 -6 -6 -47 -4 -92 4 -101 26 -143 82 -163 37 -12 46
-11 113 11 l73 25 15 -36 c18 -42 13 -48 -76 -88 -63 -29 -168 -36 -210 -14
-81 43 -130 135 -130 247 0 121 55 196 165 225 33 9 178 5 194 -6z m-577 -85
c91 -26 158 -137 158 -266 0 -97 -84 -192 -191 -215 -155 -33 -249 35 -280
202 -10 58 -10 74 5 120 27 84 86 136 181 159 44 11 85 11 127 0z m-462 -145
c65 -34 91 -151 47 -216 -23 -35 -108 -88 -140 -89 -13 0 -17 -6 -13 -17 2
-10 7 -28 11 -39 4 -15 17 -24 39 -28 31 -6 45 -24 46 -58 0 -5 -52 -24 -192
-68 -25 -8 -28 -6 -39 28 -7 20 -8 37 -3 39 37 13 36 19 -4 144 -54 166 -51
159 -78 159 -23 0 -44 25 -44 53 0 28 214 106 293 107 26 0 61 -7 77 -15z
m17759 -200 c135 -32 243 -119 305 -247 40 -82 62 -196 49 -249 -9 -31 -12
-33 -112 -59 -143 -37 -145 -39 -151 -197 l-5 -127 -60 -19 c-46 -14 -83 -18
-156 -15 -88 3 -103 7 -175 43 -104 51 -173 120 -221 222 -33 68 -38 89 -41
169 -7 148 30 246 129 350 117 121 274 167 438 129z m-18365 -26 c54 -43 72
-123 41 -183 -9 -16 -12 -32 -7 -35 4 -3 42 -30 84 -58 74 -51 95 -70 86 -78
-2 -3 -29 -15 -59 -29 l-55 -24 -87 66 c-98 73 -119 73 -91 3 13 -33 23 -43
46 -48 19 -4 33 -15 39 -31 5 -14 8 -26 7 -28 -5 -4 -156 -72 -177 -79 -15 -5
-23 1 -35 23 -14 26 -13 30 5 48 19 20 19 21 -39 149 -55 123 -60 130 -89 133
-41 4 -64 49 -36 70 24 18 169 91 213 108 56 20 123 17 154 -7z m-441 -179
c14 -22 15 -33 7 -47 -9 -15 -1 -36 42 -112 44 -80 53 -104 56 -156 6 -95 -34
-159 -133 -207 -57 -29 -102 -31 -151 -8 -51 25 -73 52 -141 170 -35 62 -54
86 -71 88 -19 3 -61 58 -50 67 2 1 44 25 93 53 l90 51 17 -22 c23 -28 22 -40
-1 -61 -19 -18 -19 -19 14 -79 50 -91 92 -146 119 -158 30 -14 70 -5 97 22 27
27 21 49 -47 171 -50 89 -58 98 -84 98 -22 0 -33 7 -45 29 l-15 30 88 50 c48
27 89 50 92 50 3 1 14 -12 23 -29z m19760 9 c39 -11 45 -24 24 -53 -11 -15
-17 -16 -35 -7 -30 16 -87 14 -102 -4 -18 -22 2 -42 50 -50 47 -8 100 -42 110
-70 5 -12 2 -35 -6 -53 -22 -54 -100 -75 -187 -51 -43 12 -54 28 -38 57 10 19
13 19 41 6 16 -9 48 -14 72 -12 35 2 44 7 46 25 3 18 -4 24 -40 32 -104 26
-144 69 -119 129 22 54 99 75 184 51z m355 -21 c3 -27 2 -28 -47 -28 l-51 0 0
-123 0 -123 -35 -2 -34 -3 -3 123 -3 123 -47 3 c-42 3 -48 6 -48 26 0 12 3 26
7 30 4 3 63 5 132 4 l126 -3 3 -27z m205 26 c70 -7 113 -39 123 -88 6 -37 -15
-89 -43 -105 -16 -8 -15 -14 15 -54 17 -25 32 -47 32 -49 0 -3 -16 -5 -36 -5
-30 0 -40 7 -66 44 -24 33 -38 43 -59 43 -26 0 -28 -3 -31 -42 -3 -40 -5 -43
-35 -46 l-33 -3 0 154 0 154 38 2 c20 1 63 -1 95 -5z m435 -26 l3 -27 -78 -3
c-76 -3 -78 -4 -81 -30 -3 -27 -3 -27 65 -30 66 -3 68 -4 71 -30 l3 -28 -71 0
-71 0 3 -32 3 -33 78 -3 77 -3 0 -30 0 -30 -112 3 -113 3 -3 140 c-1 76 0 145
3 152 3 11 30 13 112 11 l108 -3 3 -27z m250 19 c10 -11 132 -283 132 -292 0
-3 -16 -5 -36 -5 -31 0 -37 4 -50 35 l-14 35 -68 0 c-66 0 -67 -1 -82 -33 -12
-25 -22 -33 -47 -35 -18 -2 -33 1 -33 5 0 12 118 274 129 287 14 16 57 18 69
3z m307 -76 c27 -46 54 -84 59 -83 5 0 30 35 55 77 49 83 68 102 95 92 14 -6
16 -27 16 -156 l0 -149 -32 1 -33 2 -3 84 -3 84 -37 -64 c-51 -87 -66 -88
-117 -4 l-40 65 -5 -82 -5 -83 -28 0 -28 0 0 148 c0 81 1 149 1 150 0 2 12 3
27 2 23 -1 35 -15 78 -84z m-18235 -111 c682 -41 1300 -195 1917 -478 221
-101 467 -238 656 -364 l87 -59 83 60 c271 197 604 252 912 150 167 -56 294
-137 419 -269 341 -362 365 -913 56 -1306 l-48 -61 39 -59 c115 -171 258 -428
362 -651 472 -1010 609 -2136 396 -3253 -51 -266 -140 -575 -254 -880 -62
-165 -248 -562 -311 -661 -13 -21 -24 -41 -24 -43 0 -3 31 -2 68 1 l69 6 6
-129 c3 -71 22 -273 42 -449 34 -314 56 -525 91 -875 10 -96 18 -233 18 -305
1 -116 -2 -136 -23 -182 -13 -29 -43 -70 -66 -92 -109 -100 -352 -177 -476
-150 -154 33 -226 210 -142 347 24 40 42 54 120 93 50 25 121 54 157 63 78 19
226 20 279 2 l38 -14 -7 62 c-3 33 -21 187 -40 341 -18 154 -44 401 -56 548
-22 259 -23 268 -43 262 -111 -33 -186 -47 -273 -52 l-103 -6 -71 -91 c-191
-243 -453 -526 -643 -694 -126 -111 -295 -251 -357 -295 -31 -22 -71 -62 -89
-89 -48 -75 -140 -136 -264 -174 -33 -11 -107 -47 -165 -82 -137 -82 -510
-266 -672 -331 -877 -352 -1811 -464 -2753 -330 -848 121 -1694 473 -2390 995
-411 308 -795 695 -1089 1098 l-82 112 -48 -54 c-61 -67 -179 -126 -356 -178
-110 -32 -138 -36 -235 -37 -182 -1 -311 47 -403 148 -64 70 -87 137 -80 236
10 130 90 249 210 310 103 52 192 69 357 68 80 0 170 -4 199 -8 28 -4 52 -6
52 -3 0 2 -45 95 -99 205 -345 702 -519 1420 -538 2212 -20 867 168 1708 552
2475 217 433 518 869 842 1219 l59 65 -42 135 c-62 202 -71 251 -50 305 32 82
159 172 261 184 83 9 145 -51 145 -140 0 -41 -5 -54 -36 -88 -52 -58 -165
-111 -238 -113 -34 -1 -55 -5 -53 -12 2 -5 19 -54 36 -107 18 -54 35 -98 38
-98 3 0 58 51 122 113 160 155 451 396 590 488 l24 15 -37 135 c-20 73 -36
153 -36 177 0 79 58 157 155 205 118 59 182 56 233 -11 22 -29 27 -46 27 -90
0 -52 -2 -56 -48 -98 -66 -60 -143 -95 -221 -101 l-63 -6 25 -78 c15 -44 29
-79 33 -79 4 0 63 35 131 79 917 586 2034 877 3118 811z m-3564 -155 c53 -26
112 -94 140 -161 22 -51 19 -135 -5 -183 -34 -66 -124 -131 -203 -146 -142
-27 -305 201 -248 349 14 38 79 105 124 128 87 44 124 47 192 13z m19874 -24
c16 -32 13 -434 -4 -476 -16 -37 -60 -65 -102 -65 -40 0 -94 59 -94 104 0 50
42 95 95 103 l40 5 -2 79 c-1 43 -4 80 -8 80 -16 3 -271 -66 -277 -75 -4 -6
-8 -70 -8 -143 0 -127 -1 -133 -26 -162 -22 -26 -33 -31 -71 -31 -36 0 -50 6
-74 29 -62 62 -20 171 65 171 l36 0 0 138 c0 75 5 144 10 152 8 13 344 106
392 109 10 1 22 -8 28 -18z m1206 -11 c21 -8 22 -12 11 -40 -9 -25 -16 -30
-32 -25 -55 17 -91 17 -105 0 -17 -21 -3 -32 52 -41 51 -9 96 -39 104 -69 9
-36 -14 -83 -50 -102 -40 -22 -131 -21 -173 1 -33 16 -33 24 -8 73 1 2 23 -4
49 -13 50 -17 96 -12 96 11 0 9 -21 21 -57 31 -76 21 -103 47 -103 95 0 81
108 120 216 79z m469 9 c24 -6 52 -20 61 -30 16 -18 16 -20 -6 -44 -21 -22
-25 -23 -44 -10 -31 22 -89 19 -112 -6 -28 -31 -25 -96 5 -120 29 -24 78 -25
103 -2 18 16 20 15 46 -11 l27 -27 -23 -19 c-66 -54 -168 -45 -227 21 -31 35
-35 45 -35 95 0 86 40 136 125 157 32 8 34 8 80 -4z m-1359 -84 l51 -86 49 83
c46 78 51 83 87 86 l37 3 0 -150 0 -151 -40 0 -40 0 0 78 0 77 -37 -62 c-48
-81 -66 -82 -113 -5 l-35 57 -3 -72 -3 -73 -39 0 -40 0 0 150 0 150 38 0 c36
0 39 -2 88 -85z m404 -11 c0 -109 9 -134 48 -134 52 0 57 11 60 125 l4 105 39
0 39 0 0 -105 c0 -118 -12 -155 -58 -178 -71 -36 -138 -28 -187 23 -29 30 -30
35 -34 146 l-3 114 46 0 46 0 0 -96z m674 -45 c3 -77 4 -145 1 -150 -4 -5 -24
-9 -46 -9 l-39 0 0 150 0 150 38 0 39 0 7 -141z m-21678 -141 c0 -35 4 -95 9
-135 6 -62 12 -77 42 -113 32 -37 40 -41 68 -36 27 5 35 2 48 -18 16 -23 15
-24 -72 -95 -49 -39 -93 -71 -99 -71 -7 0 -19 11 -28 25 -16 24 -15 27 1 45
19 21 16 27 -27 81 -10 12 -182 75 -285 104 -6 2 -16 13 -22 23 -9 17 -1 28
63 81 41 33 79 61 84 61 5 0 17 -9 28 -21 15 -17 16 -23 6 -40 -11 -16 -10
-20 5 -26 10 -3 38 -14 62 -24 24 -11 46 -17 48 -15 2 2 0 30 -4 62 -9 58 -9
59 -40 57 -23 -2 -35 3 -47 22 -16 24 -15 25 52 79 66 54 67 55 86 36 15 -15
20 -35 22 -82z m-501 -332 c17 -16 23 -29 19 -41 -5 -13 27 -50 126 -150 l133
-133 -13 -31 c-6 -17 -17 -34 -24 -39 -7 -6 -83 0 -195 14 -102 13 -186 22
-188 20 -2 -2 29 -31 68 -66 64 -54 76 -61 103 -56 24 5 36 1 50 -15 18 -21
17 -22 -46 -86 l-64 -64 -27 21 c-20 16 -26 27 -21 44 4 18 -13 41 -94 124
-83 85 -104 102 -129 102 -21 0 -36 7 -46 24 -15 22 -14 25 33 71 l48 48 83
-7 c45 -4 119 -13 165 -20 46 -7 84 -9 84 -5 0 4 -27 30 -60 59 -53 46 -63 51
-91 45 -27 -6 -35 -3 -50 16 -18 24 -18 24 44 87 34 34 62 62 64 62 1 0 14
-11 28 -24z m-389 -392 c21 -14 24 -22 18 -47 -5 -23 -2 -34 14 -46 11 -9 61
-51 111 -93 84 -71 93 -77 118 -67 21 8 30 6 49 -12 l24 -22 -67 -76 c-37 -42
-70 -80 -74 -85 -4 -4 -19 0 -33 10 -20 15 -24 25 -20 49 5 29 -1 36 -88 110
-133 114 -121 107 -153 95 -24 -9 -32 -7 -51 11 l-23 22 71 83 c39 46 73 84
75 84 2 0 15 -7 29 -16z m-251 -404 c60 -61 56 -83 -16 -88 -48 -4 -69 -18
-100 -68 -19 -31 -19 -34 -3 -59 21 -32 99 -89 143 -104 68 -23 123 18 162
118 18 48 24 50 74 31 21 -8 22 -12 14 -54 -24 -127 -128 -236 -227 -236 -78
0 -193 70 -243 147 -60 96 -30 216 79 313 31 27 59 50 62 50 3 0 28 -23 55
-50z m-289 -382 c-5 -24 3 -31 108 -97 135 -84 138 -86 166 -71 18 9 28 9 46
-1 13 -7 24 -16 24 -20 0 -6 -104 -177 -114 -187 -3 -2 -16 4 -31 14 -19 12
-25 24 -23 43 3 28 -8 37 -161 130 -79 48 -85 50 -111 36 -23 -12 -30 -12 -49
1 -11 8 -21 19 -21 24 0 4 25 49 56 98 l56 90 30 -17 c24 -13 28 -21 24 -43z
m-134 -249 c40 -26 47 -35 42 -53 -8 -26 -22 -36 -51 -36 -37 0 -53 -11 -74
-53 -17 -32 -18 -41 -7 -48 26 -17 50 -8 129 45 98 67 124 74 178 47 91 -47
97 -162 15 -286 -18 -27 -42 -60 -53 -73 l-20 -23 -54 36 c-45 30 -54 40 -49
58 7 29 20 37 59 37 27 0 36 7 58 43 31 54 31 63 3 71 -17 4 -43 -8 -96 -44
-84 -57 -124 -68 -173 -47 -125 54 -127 186 -6 324 16 18 34 33 40 33 5 0 32
-14 59 -31z m25578 0 c191 -35 377 -134 512 -271 273 -277 360 -679 224 -1039
-87 -231 -262 -427 -481 -536 -118 -59 -284 -103 -390 -103 l-55 0 0 986 0
986 68 -6 c37 -4 92 -11 122 -17z m-10345 -281 l32 -118 -41 -11 c-23 -6 -87
-23 -143 -38 l-103 -28 -11 41 c-6 23 -21 79 -34 126 -13 46 -21 87 -19 90 3
3 67 21 142 41 91 24 138 32 141 25 2 -6 19 -64 36 -128z m7765 100 c7 -24 22
-80 35 -125 l23 -83 -67 -19 c-137 -40 -215 -60 -218 -57 -6 6 -72 250 -69
254 6 5 249 70 268 71 12 1 21 -12 28 -41z m-23227 -155 c9 -3 17 -15 17 -27
0 -17 22 -32 113 -76 140 -69 169 -101 175 -193 3 -55 0 -69 -30 -127 -63
-122 -134 -136 -313 -61 -101 42 -129 48 -140 31 -7 -11 -65 15 -65 28 0 12
71 176 81 186 4 5 20 4 37 -3 25 -10 30 -18 28 -44 -1 -30 3 -32 87 -70 142
-62 210 -52 223 34 5 30 1 36 -28 55 -18 11 -73 37 -123 58 -86 37 -91 38
-118 23 -22 -13 -33 -14 -52 -5 -30 14 -30 15 -5 72 11 25 29 67 40 92 16 37
24 45 38 39 9 -4 25 -10 35 -12z m14619 -48 c5 -130 10 -116 -57 -134 l-60
-16 1 -355 2 -355 100 -3 100 -3 68 78 c38 43 72 80 76 83 11 9 133 -5 133
-15 -1 -61 -17 -298 -21 -322 l-6 -33 -424 0 c-331 0 -425 3 -429 13 -2 6 -5
47 -8 90 l-4 77 53 16 54 15 0 342 c0 188 -4 347 -8 353 -4 6 -28 23 -54 38
l-48 28 0 79 0 79 265 0 265 0 2 -55z m5487 -312 c132 -434 122 -402 129 -383
3 8 56 179 117 380 l111 365 227 3 227 2 2 -75 c0 -41 1 -80 2 -87 1 -7 -21
-19 -49 -26 -27 -8 -51 -15 -53 -17 -1 -1 4 -49 12 -106 8 -57 29 -205 46
-329 17 -124 35 -238 40 -253 5 -15 25 -47 45 -71 36 -44 40 -62 29 -128 l-6
-37 -248 0 -248 0 -7 63 c-10 96 -9 99 63 115 44 10 62 19 62 30 0 9 -11 123
-25 255 -14 131 -25 246 -26 255 -1 31 -18 -23 -115 -369 -53 -190 -98 -346
-99 -348 -7 -7 -280 -30 -286 -24 -4 4 -37 102 -74 217 -113 357 -168 525
-171 522 -5 -6 -35 -446 -32 -476 3 -30 8 -35 58 -55 l55 -23 -2 -67 c0 -37
-4 -73 -7 -81 -4 -13 -40 -15 -210 -15 l-204 0 -6 40 c-19 127 -21 113 23 139
23 12 41 26 41 30 0 5 20 144 45 311 25 167 45 320 45 341 0 41 -22 65 -80 89
l-30 12 0 84 0 84 243 0 244 0 112 -367z m-3356 311 l37 -7 0 -93 0 -94 140 0
140 0 0 -100 0 -100 -141 0 -140 0 3 -216 3 -216 25 -20 c23 -18 35 -20 127
-15 116 6 106 14 118 -103 l7 -66 -69 -22 c-181 -59 -327 -52 -409 20 -77 68
-94 144 -94 441 l0 197 -55 0 -55 0 0 64 0 64 148 136 c81 74 154 135 162 135
8 1 32 -2 53 -5z m953 -199 c143 -47 228 -173 241 -360 l6 -83 -29 -6 c-16 -3
-128 -24 -248 -46 -121 -22 -222 -43 -225 -46 -9 -9 35 -77 64 -99 38 -29 192
-27 288 2 37 12 69 18 71 15 10 -18 36 -154 31 -163 -4 -5 -25 -19 -48 -30
-164 -84 -371 -98 -504 -33 -154 74 -237 277 -204 499 29 195 146 328 323 365
57 12 172 5 234 -15z m1063 14 c72 -15 123 -56 157 -126 l29 -58 5 -253 c4
-211 8 -255 20 -262 8 -5 33 -20 54 -32 21 -13 38 -26 38 -30 -1 -5 -2 -33 -2
-63 l0 -55 -235 0 -235 0 0 80 0 79 40 12 41 12 -1 199 c-1 110 -6 213 -12
229 -16 47 -67 58 -196 42 l-52 -6 2 -230 3 -231 52 -31 53 -30 0 -62 0 -63
-244 0 -243 0 -7 31 c-3 17 -6 53 -6 80 0 47 1 48 38 58 20 6 43 11 50 11 9 0
12 53 12 230 l0 230 -50 31 -50 31 0 63 0 63 88 16 c121 22 212 36 245 36 23
0 29 -5 34 -30 3 -17 9 -33 13 -35 5 -3 30 4 57 16 61 27 179 58 220 58 18 1
55 -4 82 -10z m4477 -34 c9 -27 13 -136 13 -332 1 -160 4 -298 7 -307 3 -9 31
-30 61 -47 51 -29 55 -34 49 -62 -3 -16 -6 -45 -6 -63 l0 -34 -249 0 c-283 0
-261 -8 -261 95 l0 64 60 17 60 17 0 216 c0 242 -1 245 -69 276 -39 17 -41 20
-41 64 0 89 -4 85 143 111 73 12 137 24 142 26 6 1 26 2 45 1 31 -2 36 -6 46
-42z m842 11 c96 -31 92 -20 64 -196 -19 -115 -21 -117 -102 -119 -32 0 -40 6
-84 64 -53 71 -70 79 -166 73 -54 -3 -55 -4 -69 -43 -23 -65 -26 -222 -6 -290
40 -138 140 -171 345 -114 39 10 73 19 78 19 8 0 42 -130 42 -157 0 -35 -196
-102 -320 -110 -234 -16 -389 97 -436 316 -26 123 -11 279 36 376 29 59 93
130 146 161 79 47 118 54 259 50 106 -3 145 -8 213 -30z m-8629 -20 c7 -28 11
-155 11 -339 0 -220 3 -297 13 -309 6 -8 34 -27 61 -42 44 -26 48 -30 42 -58
-3 -17 -6 -46 -6 -64 l0 -34 -249 0 -249 0 -6 23 c-3 12 -6 48 -6 79 l0 56 58
19 57 20 3 209 c1 115 0 218 -2 229 -3 11 -29 33 -57 49 l-52 29 6 59 c3 33 7
61 9 63 8 9 266 53 309 54 l47 1 11 -44z m692 34 c30 -6 78 -18 108 -27 l53
-16 -4 -119 c-5 -132 -7 -137 -68 -138 -30 0 -42 8 -90 60 l-55 61 -85 2 -85
2 -3 -31 c-4 -42 21 -62 189 -149 154 -80 223 -140 235 -200 9 -51 -1 -146
-19 -181 -38 -73 -129 -132 -237 -155 -72 -15 -275 -6 -368 16 l-73 17 5 36
c3 21 8 76 11 124 l7 86 46 9 47 10 63 -61 63 -61 84 -4 85 -3 0 35 c0 42 -15
55 -130 112 -145 73 -229 140 -257 205 -21 48 -18 151 6 203 35 79 120 143
218 166 53 13 190 13 254 1z m5234 -12 c5 -13 11 -157 14 -321 6 -299 6 -299
30 -318 27 -22 88 -25 174 -8 l57 12 0 203 c0 225 2 218 -68 256 -31 16 -32
19 -32 83 0 36 2 65 5 65 2 0 69 11 147 25 78 14 157 25 175 25 29 0 33 -4 43
-40 6 -23 11 -154 11 -325 0 -157 4 -296 9 -310 5 -13 27 -34 49 -47 38 -22
41 -26 41 -69 0 -26 -6 -51 -12 -57 -17 -13 -157 -40 -257 -48 l-79 -7 -11 41
-11 41 -63 -29 c-136 -64 -268 -76 -352 -32 -52 26 -79 56 -107 117 -21 46
-23 68 -28 287 -3 130 -7 238 -10 241 -3 2 -26 16 -52 31 -48 28 -48 28 -48
79 0 29 4 58 9 65 8 14 247 60 317 61 35 1 43 -3 49 -21z m1255 1 c126 -29
122 -24 114 -153 -8 -120 -16 -136 -70 -136 -29 0 -43 9 -92 60 -55 58 -59 61
-119 67 -84 8 -113 0 -113 -33 0 -38 41 -70 191 -149 203 -106 243 -150 242
-265 0 -118 -63 -202 -191 -254 -68 -28 -269 -34 -382 -11 -137 27 -124 10
-116 144 4 64 11 120 16 125 4 4 28 10 52 13 43 5 46 4 100 -53 l55 -57 85 -5
c82 -4 85 -4 91 19 10 37 -17 66 -104 109 -176 89 -265 161 -289 236 -16 47
-8 149 15 194 74 147 276 206 515 149z m-22881 -270 c22 -8 31 -17 31 -34 0
-21 8 -24 133 -45 72 -13 146 -22 162 -21 56 4 85 4 90 -1 2 -2 -9 -48 -26
-101 -26 -84 -33 -97 -52 -97 -34 0 -51 15 -44 39 3 12 2 23 -2 26 -9 5 -190
45 -205 45 -6 0 151 -110 251 -174 1 -1 -4 -26 -10 -56 l-12 -55 -165 -5
c-112 -3 -159 -8 -145 -14 49 -23 161 -66 171 -66 6 0 19 9 29 20 16 18 20 18
45 5 l28 -15 -26 -80 c-19 -58 -31 -80 -43 -80 -28 0 -49 11 -49 26 0 12 -246
144 -269 144 -5 0 -17 -7 -26 -16 -13 -13 -23 -15 -48 -7 -18 5 -31 14 -31 19
1 5 14 48 29 96 l27 88 165 2 165 3 -131 90 c-72 50 -131 95 -131 102 0 14 49
173 54 173 2 0 17 -5 35 -11z m21362 -1109 c4 -14 7 -117 8 -229 l1 -203 23 5
c12 3 54 18 92 33 58 23 86 28 165 28 84 1 100 -2 140 -24 104 -59 130 -146
130 -452 0 -229 -2 -221 71 -259 l39 -19 0 -65 0 -65 -235 0 -235 0 0 43 c0
23 -3 59 -6 79 -6 36 -6 37 35 48 l41 11 0 217 c0 248 -1 252 -71 261 -44 6
-161 -3 -179 -14 -11 -7 -14 -395 -4 -433 4 -13 30 -38 62 -58 53 -34 54 -36
48 -72 -3 -20 -6 -47 -6 -59 l0 -23 -245 0 -246 0 3 81 3 82 48 14 47 14 -2
421 -3 422 -35 23 c-74 47 -71 42 -64 109 l6 61 147 22 c80 13 153 24 161 26
35 7 54 -1 61 -25z m-5378 -127 c3 -5 8 -83 12 -174 l7 -166 -64 -6 -63 -6
-35 42 c-19 23 -48 56 -65 74 l-30 33 -120 1 -120 1 -3 -131 c-3 -131 -2 -131
20 -131 33 0 256 19 301 25 l37 5 0 -130 c0 -152 22 -137 -175 -115 -71 8
-143 15 -158 15 l-28 0 3 -127 3 -128 138 0 c129 0 139 1 155 21 9 12 37 45
61 73 43 49 47 51 95 51 80 0 80 -1 73 -132 -4 -62 -10 -137 -13 -165 l-7 -53
-464 0 -464 0 3 86 3 87 55 16 55 17 3 319 c1 176 0 334 -3 350 -4 24 -17 37
-65 64 l-60 35 0 52 c0 29 4 64 10 78 l10 26 444 0 c245 0 447 -3 449 -7z
m8185 -238 c103 -24 192 -96 232 -188 25 -57 50 -166 50 -223 l0 -40 -232 -43
c-298 -55 -278 -50 -271 -69 12 -33 55 -82 86 -98 40 -21 173 -14 266 15 36
11 67 19 69 16 2 -2 12 -40 22 -85 l18 -81 -69 -34 c-91 -46 -173 -65 -290
-65 -113 0 -171 15 -244 64 -105 69 -155 177 -162 351 -8 169 32 292 123 380
101 99 250 136 402 100z m-6523 -36 c123 -60 182 -163 201 -351 5 -53 4 -69
-7 -73 -8 -2 -113 -23 -234 -45 -121 -22 -230 -42 -243 -45 l-22 -5 20 -39
c46 -91 142 -111 310 -67 52 13 96 23 98 21 2 -1 11 -38 22 -81 21 -92 25 -87
-85 -133 -147 -62 -328 -69 -440 -18 -149 69 -225 209 -225 412 0 202 76 347
220 420 74 37 114 45 222 41 85 -4 105 -8 163 -37z m912 -66 c-10 -161 -5
-153 -96 -153 -42 0 -93 -3 -114 -6 l-37 -7 2 -216 3 -216 57 -30 c31 -17 60
-33 63 -37 4 -3 4 -31 0 -62 l-7 -56 -248 0 -247 0 -7 31 c-3 17 -6 53 -6 79
l0 48 50 17 50 17 0 223 0 224 -24 18 c-13 10 -37 25 -53 34 -27 15 -28 17
-23 79 l5 64 130 23 c72 13 150 22 175 21 44 -3 45 -4 57 -48 6 -25 12 -46 12
-48 1 -2 16 8 35 23 68 52 140 85 185 85 l44 0 -6 -107z m4089 80 c101 -39
168 -115 204 -231 20 -65 35 -198 23 -205 -4 -2 -116 -24 -248 -48 -132 -23
-244 -46 -249 -50 -12 -11 30 -75 67 -101 27 -19 45 -23 112 -23 69 1 106 7
222 41 19 5 23 0 38 -70 9 -42 15 -83 12 -91 -7 -18 -64 -47 -147 -75 -44 -15
-100 -23 -175 -27 -96 -5 -118 -2 -175 17 -173 58 -260 197 -260 417 0 159 35
266 114 351 48 51 130 97 199 112 66 14 205 5 263 -17z m940 -82 c-10 -159 -5
-151 -91 -151 -40 0 -93 -3 -119 -6 l-47 -7 1 -195 c1 -107 6 -205 10 -218 6
-14 33 -35 71 -54 59 -30 61 -33 55 -62 -3 -17 -6 -43 -6 -59 l0 -29 -254 0
-253 0 -2 79 -2 79 51 17 50 17 0 223 0 224 -24 18 c-13 10 -38 26 -54 35 -30
16 -31 18 -25 75 3 32 10 61 15 64 16 10 250 49 295 49 37 0 42 -3 52 -31 6
-18 11 -40 11 -50 0 -25 2 -24 57 15 77 55 118 72 168 73 l48 1 -7 -107z
m-7082 91 c3 -5 8 -38 12 -75 l7 -66 -47 -12 c-27 -7 -46 -17 -44 -23 14 -56
144 -404 149 -398 10 12 139 371 139 387 0 8 -20 25 -45 37 l-46 22 6 46 c13
100 -5 90 170 90 84 0 156 -4 159 -8 3 -5 8 -38 12 -73 l6 -64 -163 -368
c-128 -288 -168 -369 -184 -372 -11 -3 -67 -6 -123 -7 l-104 -3 -17 45 c-10
25 -74 189 -141 364 -68 176 -134 331 -147 346 -17 21 -23 40 -23 77 0 27 3
53 7 56 9 10 411 8 417 -1z m2560 -14 c3 -13 7 -46 11 -74 l5 -51 -48 -14 -49
-14 68 -205 c58 -175 69 -201 77 -180 6 14 40 99 76 190 36 90 66 171 66 180
0 10 -17 22 -42 31 l-43 16 3 64 c2 35 7 67 11 72 4 4 77 6 162 5 l154 -3 8
-70 9 -70 -160 -345 c-182 -396 -243 -519 -318 -645 -85 -145 -72 -137 -140
-81 -33 26 -80 73 -107 104 l-47 56 91 92 92 93 -48 128 c-145 388 -219 570
-244 605 -29 39 -32 70 -15 126 2 9 54 12 213 12 210 0 211 0 215 -22z m1369
-65 c58 -186 154 -483 158 -487 6 -7 111 383 105 393 -3 4 -23 13 -45 21 -45
14 -49 28 -35 113 l7 37 158 0 c179 0 160 9 173 -85 6 -41 -3 -67 -219 -630
l-62 -160 -39 -6 c-21 -4 -77 -8 -123 -10 l-84 -4 -65 222 c-36 122 -68 220
-71 217 -4 -3 -38 -98 -77 -212 -82 -238 -61 -217 -226 -223 l-91 -4 -118 352
c-83 250 -127 366 -151 401 -28 42 -33 57 -30 96 l4 46 214 0 c197 0 214 -1
215 -17 0 -10 4 -42 8 -71 l7 -53 -43 -10 c-24 -6 -43 -16 -43 -21 0 -14 99
-370 104 -376 3 -2 9 11 14 30 50 177 146 495 152 501 8 10 88 24 141 26 l35
1 27 -87z m-7591 -358 c90 -28 172 -32 224 -10 20 8 41 12 46 9 17 -11 3 -135
-20 -181 -47 -92 -126 -123 -308 -123 -144 0 -154 -5 -154 -78 0 -26 9 -110
21 -187 27 -191 35 -357 19 -426 -31 -136 -130 -211 -295 -225 -49 -4 -66 -2
-93 15 -69 44 -92 133 -52 199 25 41 68 67 154 94 67 20 129 21 194 2 l23 -7
-6 89 c-4 49 -16 154 -26 234 -30 221 -36 421 -15 492 18 63 64 124 99 132 37
8 106 -3 189 -29z m9017 -1016 c18 -67 29 -125 24 -129 -9 -9 -266 -80 -271
-75 -5 4 -72 249 -69 251 5 5 253 72 268 73 12 1 24 -28 48 -120z m-4768 -66
c1 -5 4 -81 8 -170 7 -183 11 -173 -73 -173 l-51 0 -54 69 -54 68 -60 7 c-33
3 -91 6 -128 6 l-69 0 0 -135 c0 -74 3 -135 8 -135 4 0 81 7 171 15 90 8 168
12 172 9 11 -6 12 -241 1 -248 -4 -2 -81 4 -172 15 -91 10 -168 19 -172 19 -5
0 -8 -61 -8 -136 l0 -136 138 7 137 7 65 69 65 70 63 -1 64 0 -7 -107 c-4 -60
-10 -137 -14 -173 l-6 -65 -462 -3 -463 -2 -2 70 c-1 38 -2 78 -2 87 -1 12 15
21 58 33 57 15 60 18 62 51 2 19 1 177 -2 351 l-6 318 -59 32 -59 33 0 71 c0
39 3 74 7 77 9 10 903 9 904 0z m3997 -59 c8 -2 12 -30 12 -93 l0 -90 138 -3
137 -3 3 -97 3 -98 -141 0 -140 0 0 -199 c0 -117 4 -211 11 -229 15 -45 63
-58 168 -46 l80 10 5 -26 c3 -14 8 -53 11 -87 l7 -62 -84 -26 c-169 -54 -317
-42 -397 31 -73 65 -75 77 -81 369 l-5 260 -57 3 -58 3 0 64 c0 51 4 66 19 77
10 7 65 56 122 109 163 150 159 148 199 142 19 -3 41 -6 48 -9z m3136 -194
c132 -51 212 -185 219 -369 l2 -64 -250 -46 c-137 -24 -252 -46 -254 -47 -12
-9 50 -92 84 -112 35 -20 49 -22 115 -18 65 4 100 11 206 42 19 5 23 -2 42
-76 l20 -81 -37 -25 c-20 -13 -72 -36 -116 -51 -69 -23 -97 -27 -205 -27 -121
-1 -127 0 -191 31 -72 35 -135 96 -168 162 -46 90 -64 251 -41 372 32 166 153
297 304 329 71 15 205 5 270 -20z m-5534 4 c154 -46 234 -163 256 -375 l7 -67
-49 -10 c-27 -6 -141 -27 -254 -48 -113 -20 -207 -38 -209 -40 -10 -9 54 -96
82 -111 42 -23 160 -22 242 1 111 32 100 36 119 -38 9 -36 16 -74 16 -84 0
-25 -91 -74 -180 -98 -89 -24 -248 -24 -320 -1 -177 58 -270 225 -257 461 12
221 111 363 287 412 65 18 197 17 260 -2z m689 -15 c6 -18 11 -40 11 -50 0
-27 13 -24 67 15 73 52 108 66 159 66 l47 0 -6 -97 c-3 -54 -9 -112 -13 -130
l-6 -32 -117 -3 -116 -3 -3 -155 c-2 -85 -1 -183 3 -217 l7 -63 65 -36 c61
-35 65 -38 59 -67 -3 -16 -6 -42 -6 -58 l0 -29 -249 0 -249 0 -7 64 c-10 91
-7 98 48 114 l47 13 0 220 c0 121 -4 228 -9 238 -6 10 -28 26 -51 36 l-41 18
3 66 3 66 95 18 c106 20 194 34 227 36 15 1 24 -8 32 -30z m2475 -4 c5 -16 12
-172 15 -345 l6 -315 52 -30 52 -30 1 -68 0 -67 -252 2 -253 3 -3 76 -3 75 60
19 61 18 0 223 0 223 -24 18 c-13 10 -39 26 -56 36 -32 17 -33 18 -27 78 3 33
7 62 9 64 7 7 295 54 322 52 23 -2 32 -9 40 -32z m560 -3 c7 -25 13 -31 25
-26 9 4 52 20 96 35 131 47 270 36 338 -27 l27 -25 98 37 c79 30 114 38 193
42 83 4 102 2 144 -17 63 -28 82 -45 112 -105 30 -60 44 -181 43 -376 -2 -214
-8 -191 56 -230 l56 -34 -6 -44 c-3 -25 -6 -53 -6 -63 0 -18 -12 -19 -224 -19
-257 0 -236 -10 -236 106 l0 60 38 10 37 9 3 193 c3 232 -3 266 -54 282 -32
11 -138 8 -184 -5 -13 -4 -15 -37 -12 -229 3 -252 -3 -232 81 -278 30 -16 31
-20 31 -83 l0 -65 -229 0 -229 0 -7 76 c-4 41 -4 79 0 82 3 4 21 12 38 18 l32
11 3 184 c2 101 0 203 -3 227 -6 38 -11 45 -43 59 -29 12 -53 14 -117 7 l-80
-9 -3 -210 c-1 -115 0 -220 3 -232 3 -13 25 -34 53 -50 26 -15 49 -30 52 -34
3 -4 3 -34 2 -68 l-4 -61 -238 0 -239 0 -6 53 c-12 95 -7 110 48 125 l47 13 0
230 0 229 -50 28 -50 27 2 65 3 65 95 18 c235 44 251 44 264 -1z m-4800 11 c2
-10 7 -43 11 -75 l6 -56 -40 -7 c-23 -4 -44 -11 -47 -16 -5 -9 136 -423 142
-416 8 7 144 386 144 400 0 9 -18 22 -45 33 l-45 17 6 56 c3 31 7 62 10 69 3
10 40 12 161 10 l158 -3 8 -66 8 -65 -164 -370 -165 -369 -44 -6 c-24 -4 -79
-8 -122 -10 l-78 -4 -94 245 c-53 135 -116 298 -141 363 -25 64 -59 134 -75
154 -16 20 -26 43 -23 51 3 7 5 29 5 48 l0 34 209 0 c191 0 210 -2 215 -17z
m2550 0 c2 -10 6 -42 8 -72 l3 -55 -45 -11 c-25 -7 -44 -16 -44 -21 4 -23 129
-394 134 -394 7 0 150 365 150 382 0 8 -20 24 -45 36 l-44 21 5 53 c3 29 7 59
10 66 3 10 40 12 161 10 l158 -3 8 -66 8 -66 -62 -134 c-34 -74 -94 -206 -134
-294 -138 -303 -289 -597 -339 -660 -23 -29 -24 -29 -50 -11 -41 26 -102 83
-146 136 l-40 48 90 88 c50 48 90 93 90 99 0 12 -217 590 -246 655 -8 19 -27
52 -42 73 -20 30 -25 49 -23 80 2 23 5 45 8 49 2 5 98 8 213 8 190 0 209 -2
214 -17z m-2568 -1792 c22 -10 54 -35 71 -55 102 -125 44 -303 -112 -345 -53
-14 -1665 -15 -1716 -1 -113 31 -185 145 -159 249 16 67 53 117 108 145 l47
25 860 0 c816 1 862 0 901 -18z m2268 -20 c21 -13 51 -44 67 -69 56 -88 47
-182 -23 -258 -72 -78 -31 -75 -984 -72 -934 3 -865 -2 -942 71 -40 38 -67
121 -57 175 15 81 73 151 142 172 15 5 417 8 893 7 l865 -2 39 -24z m2253 -3
c46 -31 88 -94 98 -150 10 -54 -17 -137 -57 -175 -77 -73 -8 -68 -942 -71
-952 -3 -912 -6 -984 72 -67 72 -78 149 -36 234 27 55 73 97 121 112 15 5 417
8 893 7 l865 -2 42 -27z m2217 18 c81 -34 136 -117 136 -205 -1 -89 -80 -181
-172 -200 -38 -8 -300 -11 -883 -9 -788 3 -832 4 -865 22 -82 44 -123 109
-123 198 0 80 38 142 112 180 l53 28 854 0 c703 0 861 -2 888 -14z m-4244
-1175 c0 -47 5 -83 11 -87 19 -11 -5 -23 -54 -25 -63 -4 -83 17 -78 83 2 25
29 48 57 48 25 0 34 25 12 32 -19 7 2 28 28 28 23 0 24 -2 24 -79z m3400 0 c0
-47 5 -83 11 -87 19 -11 -5 -23 -55 -25 -40 -2 -52 1 -67 20 -11 13 -19 33
-19 45 0 32 28 66 54 66 29 0 39 10 25 26 -15 18 -3 34 27 34 23 0 24 -2 24
-79z m-3646 15 l41 -1 3 -45 c2 -25 7 -49 13 -54 17 -18 9 -26 -26 -26 l-34 0
6 51 c5 46 4 51 -13 47 -20 -4 -23 -23 -11 -70 7 -27 6 -28 -27 -28 l-35 0 6
51 c5 46 4 51 -13 47 -19 -4 -21 -19 -8 -75 4 -20 0 -23 -28 -23 l-33 0 0 65
0 64 45 3 c25 2 51 1 59 -1 8 -2 32 -5 55 -5z m1446 4 c42 11 60 -5 60 -55 0
-24 5 -47 10 -50 21 -13 9 -25 -24 -25 l-34 0 1 48 c2 36 -2 47 -13 47 -18 0
-26 -53 -11 -68 19 -19 12 -27 -23 -27 l-34 0 1 46 c1 32 -2 48 -12 52 -11 4
-13 -6 -9 -47 l5 -51 -31 0 -31 0 0 65 0 64 45 3 c25 2 52 0 60 -3 8 -3 26 -3
40 1z m692 -24 c4 -6 8 -25 8 -42 0 -39 -30 -67 -72 -67 -77 0 -80 119 -3 135
22 5 56 -8 67 -26z m2488 12 c0 -10 -4 -18 -10 -18 -5 0 -10 -6 -10 -14 0 -23
-29 -46 -58 -47 -25 -1 -24 -2 7 -9 18 -4 40 -15 48 -23 34 -33 -33 -79 -89
-61 -33 10 -37 21 -22 62 7 23 9 41 3 47 -13 13 -11 51 4 63 15 12 39 17 90
17 29 1 37 -3 37 -17z m-5382 -38 c2 -25 7 -49 13 -54 17 -18 9 -26 -25 -26
l-34 0 1 48 c2 36 -2 47 -13 47 -18 0 -26 -53 -11 -68 19 -19 12 -27 -24 -27
l-34 0 6 51 c5 46 4 51 -13 47 -19 -4 -21 -19 -8 -75 4 -20 0 -23 -28 -23
l-33 0 0 65 0 65 100 -2 100 -3 3 -45z m290 38 c7 -7 12 -32 12 -56 0 -41 -2
-44 -40 -60 -37 -16 -53 -32 -30 -32 6 0 10 -7 10 -15 0 -10 -10 -15 -34 -15
-38 0 -55 15 -37 33 14 14 15 114 1 122 -5 3 -10 13 -10 21 0 18 110 20 128 2z
m4342 -3 c6 -8 12 -31 12 -52 0 -39 -21 -63 -53 -63 -23 0 -35 -20 -19 -30 20
-12 4 -27 -29 -28 -34 -1 -49 14 -32 31 6 6 11 34 11 62 0 28 -5 56 -11 62
-20 20 1 33 55 33 35 0 58 -5 66 -15z m90 -32 c0 -27 5 -55 10 -63 8 -13 10
-12 10 3 0 18 25 24 35 7 3 -5 10 -10 16 -10 18 0 8 15 -21 32 -53 30 -34 78
32 78 32 0 38 -3 38 -21 0 -18 -4 -20 -32 -14 l-33 7 38 -27 c69 -48 41 -79
-71 -77 -41 2 -77 4 -79 6 -2 2 0 22 6 45 5 24 5 43 0 47 -21 13 -8 34 21 34
29 0 30 -1 30 -47z m-4418 -295 c2 -51 2 -95 0 -97 -1 -3 -24 -6 -52 -8 -41
-2 -52 1 -65 19 -8 13 -15 32 -15 44 0 32 37 74 66 74 24 0 32 14 14 25 -23
14 -5 30 37 34 8 1 13 -28 15 -91z m189 80 c1 -7 2 -42 3 -78 0 -36 5 -71 10
-78 12 -20 1 -25 -54 -29 -60 -3 -80 13 -80 67 0 41 26 70 62 70 21 0 23 11 6
28 -9 9 -6 14 13 21 33 13 39 13 40 -1z m1219 -84 c3 -49 4 -91 3 -93 -2 -3
-24 -6 -50 -7 -58 -4 -83 15 -83 63 0 38 29 73 60 73 17 0 19 5 14 24 -4 18
-1 25 13 29 34 9 38 0 43 -89z m1580 18 c0 -47 5 -83 12 -90 16 -16 7 -23 -43
-27 -60 -6 -76 1 -88 37 -15 42 4 80 47 93 33 9 40 19 22 30 -15 10 -12 23 8
28 41 11 42 9 42 -71z m234 56 c8 -35 12 -168 6 -169 -3 -1 -25 -3 -50 -5 -57
-3 -80 15 -80 67 0 40 26 69 62 69 21 0 23 11 6 28 -9 9 -6 14 13 21 35 14 38
13 43 -11z m877 10 c1 -7 3 -44 5 -83 1 -38 3 -71 3 -72 1 -1 12 9 26 22 13
14 33 25 45 25 23 0 27 15 6 23 -8 3 -20 -1 -26 -8 -15 -18 -30 -10 -30 15 0
20 19 30 59 30 36 0 51 -17 51 -58 0 -18 5 -42 10 -53 8 -14 7 -19 -2 -20 -7
0 -33 -2 -58 -4 -25 -2 -51 1 -57 7 -9 7 -13 7 -13 -1 0 -15 -67 -14 -76 1 -4
6 -2 14 4 16 16 5 16 128 0 138 -7 5 -5 11 7 21 23 16 45 17 46 1z m217 -21
c2 -20 9 -27 24 -27 33 0 58 -29 58 -67 0 -57 -43 -84 -107 -67 -21 6 -23 12
-23 80 0 44 -5 76 -12 80 -7 5 -5 11 8 21 27 20 49 12 52 -20z m-3984 -49 c40
-56 2 -125 -62 -114 -42 6 -52 19 -52 68 0 27 6 41 22 52 33 23 74 20 92 -6z
m764 9 c6 -5 12 -29 12 -53 0 -23 5 -46 10 -49 24 -15 -5 -24 -68 -22 l-67 2
3 48 c3 43 2 47 -18 47 -19 0 -22 -4 -18 -32 3 -18 7 -40 9 -48 3 -10 -5 -16
-25 -18 -30 -4 -62 17 -38 25 14 6 16 69 2 78 -16 10 -12 23 8 27 38 8 178 5
190 -5z m144 -4 c24 -22 24 -77 -2 -103 -44 -44 -110 -13 -110 52 0 57 70 89
112 51z m676 4 c6 -5 12 -26 12 -47 0 -21 5 -42 10 -45 24 -15 9 -35 -25 -35
l-34 0 6 50 c5 46 4 50 -16 50 -16 0 -21 -6 -21 -28 0 -15 5 -33 11 -39 17
-17 1 -33 -31 -33 -29 0 -29 0 -23 50 5 43 3 50 -12 50 -14 0 -16 -8 -13 -47
3 -47 3 -48 -29 -51 l-32 -3 6 55 c5 44 3 56 -8 56 -10 1 -9 4 3 14 19 14 174
17 196 3z m155 -5 c38 -34 8 -122 -43 -122 -21 0 -27 -15 -10 -25 21 -13 8
-25 -27 -25 l-38 0 0 87 c0 49 4 91 8 94 17 12 92 6 110 -9z m149 1 c24 -22
24 -77 -2 -103 -41 -41 -110 -10 -110 50 0 58 69 92 112 53z m407 -7 c5 -12
10 -42 12 -66 4 -44 3 -45 -26 -45 -30 0 -30 1 -27 48 3 42 2 47 -17 47 -16 0
-21 -6 -21 -28 0 -15 5 -33 11 -39 17 -17 1 -33 -31 -33 -29 0 -30 1 -23 45 4
30 1 50 -8 61 -18 22 0 31 68 32 47 0 55 -3 62 -22z m911 4 c5 -10 10 -34 10
-52 0 -19 5 -39 12 -46 14 -14 -9 -25 -44 -20 -21 3 -23 7 -20 51 3 39 1 47
-13 47 -15 0 -17 -7 -12 -51 l6 -50 -31 3 c-31 3 -31 3 -32 66 -1 34 4 64 9
65 6 2 31 4 57 5 37 1 50 -3 58 -18z m983 8 c9 -7 19 -27 23 -43 12 -62 -60
-108 -111 -71 -24 18 -24 80 1 107 20 22 62 25 87 7z m-4703 -317 c0 -47 5
-83 11 -87 19 -11 -5 -24 -54 -29 -51 -5 -72 8 -83 50 -8 31 16 79 41 83 42 7
48 11 35 27 -16 19 -4 35 26 35 23 0 24 -2 24 -79z m1740 0 c0 -44 5 -83 10
-86 24 -15 6 -25 -42 -25 -29 1 -72 -1 -95 -4 -41 -5 -73 10 -73 34 0 17 32
40 56 40 13 0 24 5 24 10 0 16 -33 26 -38 12 -7 -23 -32 -13 -32 13 0 23 4 25
44 25 51 0 63 -11 68 -65 2 -27 8 -40 18 -40 19 0 27 109 10 130 -16 19 -4 35
26 35 23 0 24 -2 24 -79z m3050 7 c0 -40 3 -83 6 -94 5 -20 1 -22 -43 -26 -61
-6 -81 4 -88 46 -9 43 8 74 43 82 39 10 44 14 32 29 -16 19 -4 35 26 35 23 0
24 -2 24 -72z m-2223 26 c23 -23 25 -31 20 -75 -4 -28 -2 -49 3 -49 6 0 10 -7
10 -16 0 -14 -11 -16 -71 -12 -85 5 -109 25 -109 90 0 80 90 119 147 62z
m-1392 -43 c-9 -40 -30 -61 -63 -62 -25 -1 -24 -2 8 -11 38 -11 60 -25 60 -39
0 -21 -42 -49 -74 -49 -47 0 -84 38 -55 56 7 4 9 25 4 59 -7 63 1 73 70 77 28
2 52 2 53 1 2 -1 1 -15 -3 -32z m-1036 15 c7 -8 11 -34 9 -58 -2 -36 -8 -45
-31 -56 -71 -34 -126 51 -75 116 14 17 83 15 97 -2z m215 -2 c16 -16 21 -71 8
-90 -13 -21 -52 -34 -77 -28 -44 11 -59 69 -29 112 18 26 74 30 98 6z m525 -3
c5 -9 11 -37 13 -63 l6 -48 -32 0 c-32 0 -32 1 -32 47 1 31 -4 48 -13 51 -11
4 -13 -6 -9 -47 l5 -51 -32 0 -32 0 5 51 c4 41 2 51 -9 47 -9 -3 -14 -20 -13
-51 0 -46 0 -47 -31 -47 l-31 0 2 63 c2 34 3 63 3 64 1 2 44 2 96 2 78 -1 97
-4 104 -18z m1096 7 c2 -7 5 -50 8 -95 l4 -83 -39 0 c-27 0 -38 4 -38 15 0 8
5 15 10 15 6 0 10 6 10 14 0 9 -7 12 -19 9 -47 -12 -81 78 -44 119 19 21 101
26 108 6z m687 -10 c1 -13 2 -34 3 -48 0 -16 7 -26 19 -28 17 -4 18 1 13 48
-6 51 -6 51 21 48 25 -3 27 -7 28 -51 2 -53 7 -63 25 -52 8 5 10 24 6 57 -6
49 -6 49 21 46 25 -3 27 -7 33 -63 3 -33 5 -61 5 -62 -1 -1 -45 -3 -99 -4
-110 -3 -117 0 -117 63 0 20 -5 40 -10 43 -16 10 -1 25 26 25 18 0 24 -6 26
-22z m569 6 c16 -19 16 -79 0 -98 -7 -8 -26 -18 -42 -21 -27 -6 -42 -25 -19
-25 6 0 10 -7 10 -15 0 -10 -10 -15 -34 -15 -38 0 -55 15 -37 33 6 6 11 34 11
62 0 28 -5 56 -11 62 -20 20 0 32 56 32 35 0 58 -5 66 -15z m505 5 c3 -5 6
-27 6 -49 0 -22 4 -43 9 -46 20 -12 7 -24 -24 -24 -33 0 -33 0 -33 48 1 35 -3
47 -14 47 -15 0 -16 -19 -4 -72 4 -20 0 -23 -29 -23 -33 0 -33 0 -33 47 1 31
-4 48 -13 51 -11 4 -13 -6 -9 -47 l5 -51 -31 0 -31 0 0 64 0 64 97 0 c54 0
101 -4 104 -9z m604 -8 c25 -49 6 -106 -40 -116 -31 -7 -40 -20 -18 -27 22 -8
-3 -28 -35 -28 l-32 0 0 95 0 95 57 0 c46 0 59 -4 68 -19z m-21210 -623 c104
-32 200 -105 249 -192 129 -227 46 -493 -188 -605 -72 -34 -81 -36 -181 -36
-98 0 -110 2 -173 32 -80 38 -172 125 -205 193 -12 25 -29 77 -39 114 -55 224
124 477 357 504 72 9 127 6 180 -10z m2083 -544 c18 -6 21 -23 11 -61 -8 -28
-25 -29 -49 -3 -10 11 -29 20 -42 20 -40 0 -23 -32 32 -61 80 -42 93 -104 30
-145 -27 -17 -131 -24 -154 -9 -6 3 -11 22 -11 41 0 43 25 56 46 25 10 -13 26
-21 45 -21 45 0 36 26 -20 54 -63 32 -82 72 -58 121 23 49 86 63 170 39z m997
-14 c0 -11 -7 -23 -15 -26 -22 -9 -21 -131 2 -156 21 -24 50 -23 63 1 16 32
13 148 -5 155 -8 3 -15 15 -15 26 0 18 6 20 60 20 57 0 60 -1 60 -25 0 -14 -4
-25 -10 -25 -6 0 -10 -32 -10 -76 0 -73 -1 -77 -33 -109 -42 -42 -90 -52 -141
-31 -47 19 -66 63 -66 150 0 36 -4 68 -10 71 -5 3 -10 15 -10 26 0 17 7 19 65
19 59 0 65 -2 65 -20z m702 -49 c29 -39 55 -70 58 -70 12 -2 -3 91 -16 96 -8
3 -14 14 -14 24 0 16 8 19 55 19 48 0 55 -3 55 -19 0 -11 -4 -23 -10 -26 -6
-3 -10 -52 -10 -111 0 -102 -1 -105 -25 -116 -14 -6 -27 -9 -28 -7 -2 2 -32
41 -66 87 -35 45 -64 82 -65 82 -10 0 9 -107 20 -113 8 -4 14 -17 14 -27 0
-17 -7 -20 -55 -20 -52 0 -55 1 -55 25 0 14 5 25 10 25 6 0 10 35 10 84 0 47
-4 88 -10 91 -5 3 -10 15 -10 26 0 16 7 19 44 19 44 0 46 -2 98 -69z m-1262
-11 c0 -20 -5 -30 -15 -30 -9 0 -15 -9 -15 -25 0 -38 -33 -65 -80 -65 -56 0
-50 -16 8 -24 82 -11 111 -53 69 -102 -19 -22 -34 -28 -80 -32 -71 -6 -107 14
-107 58 0 16 5 32 11 35 5 4 8 12 6 18 -2 7 0 20 5 30 6 12 4 24 -7 39 -22 32
-19 65 10 94 22 22 33 24 90 23 36 -1 68 1 72 5 16 16 33 4 33 -24z m257 -11
c7 -13 13 -50 13 -81 0 -32 5 -58 10 -58 6 0 10 -9 10 -20 0 -18 -7 -20 -55
-20 -48 0 -55 3 -55 19 0 11 4 22 9 25 5 3 8 30 7 58 -1 50 -3 53 -28 56 -28
3 -28 3 -28 -57 0 -34 4 -61 10 -61 6 0 10 -9 10 -20 0 -18 -7 -20 -60 -20
-52 0 -60 2 -60 19 0 10 7 21 15 25 11 4 15 20 15 54 0 32 -5 54 -15 62 -8 7
-15 18 -15 26 0 15 59 29 88 20 10 -4 30 -2 43 2 33 13 72 0 86 -29z m711 -25
c27 -79 -11 -148 -87 -160 -42 -7 -56 -29 -26 -40 8 -4 15 -15 15 -25 0 -17
-8 -19 -60 -19 -57 0 -60 1 -60 25 0 14 5 25 10 25 6 0 10 40 10 100 0 60 -4
100 -10 100 -5 0 -10 9 -10 20 0 14 9 21 35 26 19 3 42 4 50 0 8 -3 25 -2 37
3 39 15 81 -10 96 -55z m-1240 -31 c2 -46 7 -83 12 -83 6 0 10 -9 10 -20 0
-18 -7 -20 -60 -20 -52 0 -60 2 -60 19 0 10 7 21 15 25 11 4 15 20 15 54 0 32
-5 54 -15 62 -34 28 -11 50 50 47 l30 -2 3 -82z m1887 63 c57 -57 35 -160 -39
-184 -76 -25 -137 17 -138 96 -1 75 33 111 105 112 37 0 53 -5 72 -24z m175 4
c0 -11 -5 -20 -10 -20 -6 0 -8 -11 -4 -27 14 -59 22 -58 39 5 15 54 21 62 41
62 21 0 26 -8 41 -60 9 -33 20 -60 24 -60 13 0 21 71 9 85 -18 22 -3 35 41 35
48 0 49 -5 8 -113 -36 -95 -35 -93 -71 -102 -26 -7 -28 -4 -39 39 -6 26 -15
48 -19 51 -4 3 -13 -15 -20 -39 -10 -35 -17 -45 -38 -49 -15 -3 -30 -3 -34 -1
-3 2 -19 41 -33 87 -15 45 -31 86 -36 92 -23 24 -8 35 46 35 48 0 55 -2 55
-20z m9197 -301 c37 -20 53 -36 76 -79 27 -52 28 -61 25 -156 -3 -91 -6 -105
-31 -143 -40 -61 -96 -83 -206 -84 -177 -1 -241 62 -241 238 0 100 17 150 65
198 62 61 218 74 312 26z m3318 1 c58 -28 91 -77 106 -155 20 -106 -3 -206
-58 -256 -40 -37 -95 -53 -188 -52 -155 2 -223 63 -233 209 -10 154 43 244
163 275 53 14 159 4 210 -21z m3252 15 c62 -18 117 -75 134 -137 6 -24 9 -81
7 -130 -3 -72 -8 -92 -30 -126 -41 -60 -99 -84 -207 -84 -112 0 -167 22 -207
82 -25 38 -29 54 -32 141 -4 91 -2 103 22 153 15 30 39 62 54 72 66 43 171 55
259 29z m-5947 -165 c0 -5 7 -10 15 -10 8 0 15 -7 15 -15 0 -8 -6 -15 -14 -15
-12 0 -14 -15 -7 -52 2 -16 30 -7 36 12 6 17 30 26 58 21 5 -1 7 4 5 11 -3 8
-16 12 -32 10 -20 -3 -27 0 -24 10 7 20 63 22 82 3 9 -10 16 -33 16 -56 l0
-39 -44 0 c-25 0 -48 4 -51 10 -4 6 -13 5 -25 -3 -15 -9 -25 -9 -38 -1 -18 12
-34 77 -26 107 6 18 34 24 34 7z m-9992 -38 c3 -31 4 -32 53 -32 l49 0 0 -34
c0 -34 -1 -35 -47 -38 l-48 -3 -3 -60 c-5 -94 0 -105 53 -105 43 0 45 -1 45
-29 0 -24 -6 -31 -31 -40 -59 -20 -108 -14 -140 18 -28 28 -29 33 -29 125 0
89 -1 96 -20 96 -35 0 -22 36 33 89 59 58 81 61 85 13z m16392 23 c0 -8 4 -15
9 -15 5 0 15 -17 22 -37 l13 -38 14 38 c8 20 21 37 28 37 7 0 18 -17 25 -37
l12 -38 12 35 c6 19 19 36 28 38 21 4 21 7 -2 -53 -23 -60 -46 -69 -65 -25
l-13 32 -11 -32 c-17 -47 -43 -36 -66 28 -25 70 -46 69 -46 -3 0 -48 -2 -55
-20 -55 -18 0 -20 7 -20 55 0 48 -2 55 -20 55 -11 0 -20 7 -20 15 0 12 13 15
60 15 47 0 60 -3 60 -15z m-2715 -17 c14 -6 25 -17 25 -25 0 -7 5 -13 10 -13
6 0 10 6 10 14 0 7 13 19 30 26 25 10 34 10 55 -4 59 -38 10 -123 -55 -96 -17
7 -30 19 -30 26 0 8 -4 14 -10 14 -5 0 -10 -6 -10 -14 0 -7 -13 -19 -30 -26
-25 -10 -34 -10 -55 4 -33 21 -34 68 -3 90 27 19 30 19 63 4z m-17032 -64 c3
-16 0 -28 -9 -31 -8 -3 -14 -10 -14 -15 0 -18 32 -120 36 -115 2 2 15 41 28
87 25 85 36 100 72 100 18 0 25 -14 49 -92 15 -51 30 -97 33 -102 3 -5 14 21
24 59 17 61 17 70 3 77 -8 5 -15 20 -15 34 0 24 2 25 58 22 50 -3 57 -6 60
-25 3 -18 -24 -98 -93 -275 -5 -13 -18 -18 -49 -18 l-42 0 -25 78 -25 77 -26
-75 -25 -75 -44 -3 -44 -3 -34 103 c-18 57 -42 121 -52 142 -34 70 -29 76 55
76 71 0 74 -1 79 -26z m503 1 c2 -11 -4 -25 -12 -32 -15 -11 -14 -18 3 -75
l20 -63 28 90 c29 94 36 105 71 105 18 0 25 -14 49 -92 15 -51 30 -97 33 -102
3 -5 14 21 24 58 17 63 17 69 2 80 -9 7 -14 21 -12 32 3 16 12 19 58 19 52 0
55 -2 58 -26 2 -14 -20 -85 -48 -158 l-51 -131 -43 0 -42 0 -22 76 c-13 42
-25 74 -28 72 -2 -3 -15 -36 -28 -74 l-23 -69 -44 -3 -44 -3 -43 130 c-24 72
-47 133 -53 136 -5 4 -9 17 -9 31 0 25 1 25 77 22 67 -3 77 -5 79 -23z m507
-1 c3 -16 0 -28 -9 -31 -18 -7 -18 -13 2 -81 19 -64 19 -64 55 57 19 67 30 81
65 81 17 0 24 -13 44 -77 42 -139 40 -137 61 -59 18 63 18 69 3 80 -9 7 -14
21 -12 32 3 16 12 19 58 19 49 0 55 -2 58 -22 3 -18 -24 -98 -93 -275 -5 -13
-18 -18 -49 -18 l-42 0 -24 75 c-13 41 -26 73 -29 70 -3 -3 -14 -36 -26 -73
l-21 -67 -44 -3 -45 -3 -43 130 c-24 72 -47 133 -53 136 -5 4 -9 17 -9 31 0
23 2 24 74 24 71 0 74 -1 79 -26z m597 -3 c0 -16 -5 -31 -12 -33 -9 -3 -7 -20
7 -67 10 -34 21 -64 25 -66 3 -2 16 26 29 61 22 61 22 66 6 78 -12 9 -15 19
-11 34 6 19 15 22 62 22 56 0 62 -6 54 -60 -5 -34 -180 -380 -193 -380 -15 0
-67 51 -67 65 0 5 13 23 29 40 l29 30 -54 135 c-29 74 -54 143 -54 153 0 15
10 17 75 17 l75 0 0 -29z m453 -9 c31 -31 32 -35 32 -116 0 -76 -2 -87 -25
-111 -71 -77 -216 -71 -255 11 -21 44 -20 141 3 182 29 56 67 74 145 70 60 -3
71 -7 100 -36z m202 16 c3 -13 6 -66 8 -118 l2 -95 40 0 40 0 3 74 c3 65 1 75
-18 88 -13 9 -20 23 -18 36 2 18 13 23 62 31 46 7 60 6 67 -5 5 -8 9 -64 9
-125 0 -90 3 -113 15 -118 19 -7 20 -42 1 -49 -7 -3 -34 -8 -58 -12 -37 -6
-46 -4 -51 9 -6 15 -9 15 -36 1 -48 -25 -108 -20 -136 11 -23 24 -25 35 -25
115 0 78 -2 90 -20 101 -30 19 -26 56 8 64 15 3 32 7 37 9 6 2 22 4 37 4 21 1
29 -5 33 -21z m375 7 c0 -18 8 -18 40 0 14 8 33 14 43 15 15 0 18 -7 15 -42
-3 -43 -3 -43 -45 -46 l-43 -3 0 -74 c0 -68 2 -76 25 -91 14 -9 25 -25 25 -35
0 -17 -8 -19 -89 -19 -81 0 -90 2 -96 20 -8 24 1 40 21 40 11 0 14 18 14 85 0
75 -2 86 -21 95 -33 18 -21 54 21 61 65 12 90 10 90 -6z m349 -1 c5 -5 6 -28
3 -51 -5 -50 -20 -55 -57 -17 -17 17 -34 24 -51 22 -35 -4 -33 -20 5 -43 127
-79 147 -116 93 -176 -25 -29 -36 -33 -90 -37 -34 -2 -78 -1 -98 2 -36 7 -36
7 -30 49 9 54 23 61 59 31 28 -24 71 -32 81 -15 7 11 -16 30 -77 65 -26 15
-53 38 -59 52 -17 36 2 84 42 112 31 21 43 23 103 19 38 -2 72 -8 76 -13z
m185 0 c3 -9 6 -64 6 -122 0 -96 2 -108 20 -120 11 -7 20 -21 20 -32 0 -18 -7
-20 -90 -20 l-90 0 0 26 c0 17 6 28 20 31 18 5 20 14 20 88 0 76 -2 84 -21 90
-15 5 -19 14 -17 33 2 22 9 28 38 33 63 11 88 10 94 -7z m537 -1 c33 -20 59
-68 59 -111 0 -34 -1 -35 -97 -52 -73 -13 -88 -25 -58 -50 11 -9 33 -11 74 -6
55 6 59 5 64 -16 8 -30 -5 -43 -58 -58 -124 -35 -205 25 -205 151 0 101 52
159 143 159 28 0 61 -7 78 -17z m520 0 c5 -5 6 -30 3 -56 -6 -40 -10 -47 -29
-47 -12 0 -32 11 -45 25 -16 17 -33 25 -50 23 -23 -3 -25 -7 -28 -61 -2 -42 2
-66 14 -84 15 -24 19 -25 79 -19 61 6 63 6 67 -19 6 -28 -3 -37 -51 -54 -52
-17 -112 -13 -149 9 -38 24 -72 89 -72 140 0 51 34 116 72 140 28 18 45 21
106 17 40 -2 77 -8 83 -14z m287 -3 c83 -51 83 -213 0 -273 -38 -29 -125 -34
-172 -12 -96 46 -99 227 -4 285 45 27 131 27 176 0z m224 10 c2 -7 14 -7 36 1
18 6 51 8 75 5 57 -9 84 -9 139 -1 100 16 128 -19 128 -157 0 -72 3 -85 20
-96 11 -7 20 -21 20 -32 0 -18 -7 -20 -85 -20 -84 0 -85 0 -85 25 0 13 7 28
15 33 13 7 15 24 13 88 l-3 79 -42 3 -43 3 0 -85 c0 -76 2 -85 20 -91 13 -4
20 -15 20 -31 0 -23 -2 -24 -79 -24 -73 0 -79 2 -85 23 -3 14 0 26 10 33 12 9
14 29 12 90 l-3 79 -37 3 c-21 2 -38 0 -38 -5 -6 -155 -6 -154 18 -172 15 -11
21 -22 16 -34 -5 -14 -20 -17 -90 -17 l-84 0 0 29 c0 21 6 30 21 34 20 5 21
11 17 82 -3 58 -8 80 -21 90 -29 21 -21 53 16 64 44 13 95 13 99 1z"/>
<path d="M13635 15847 c-57 -23 -92 -46 -129 -88 -59 -65 -81 -121 -80 -209 0
-99 28 -163 100 -229 70 -64 131 -85 228 -79 123 8 210 68 261 180 74 162 -6
356 -172 418 -60 22 -160 26 -208 7z"/>
<path d="M9483 15633 c-36 -18 -38 -25 -23 -104 24 -127 78 -181 159 -159 57
15 65 30 58 105 -6 67 -25 114 -60 153 -25 27 -85 29 -134 5z"/>
<path d="M9028 15523 c-22 -6 -22 -3 4 -85 21 -64 23 -67 47 -62 14 4 36 13
48 20 21 13 21 16 8 59 -7 25 -19 52 -25 60 -12 14 -46 18 -82 8z"/>
<path d="M26766 15175 c-97 -34 -156 -118 -156 -222 0 -210 249 -313 398 -163
45 44 64 94 65 165 1 159 -158 273 -307 220z m154 -70 c57 -29 90 -87 90 -156
0 -88 -82 -169 -171 -169 -42 0 -103 34 -134 75 -107 139 57 329 215 250z"/>
<path d="M14401 14189 c-72 -14 -141 -39 -221 -80 -73 -38 -150 -93 -140 -101
397 -288 841 -729 1114 -1105 21 -29 41 -53 45 -53 28 0 131 194 163 307 33
112 32 323 0 438 -84 292 -325 522 -619 589 -78 17 -265 20 -342 5z"/>
<path d="M9473 14090 c43 -23 51 -25 41 -7 -4 7 -3 9 2 4 5 -5 9 -12 9 -16 0
-14 123 -121 138 -121 9 0 18 -4 21 -9 4 -5 -4 -7 -16 -4 -19 4 -15 -3 20 -36
40 -40 54 -60 31 -45 -8 4 -7 0 1 -15 6 -12 15 -19 20 -16 5 3 12 0 16 -6 4
-8 3 -9 -4 -5 -17 10 -15 -2 6 -32 10 -15 24 -39 32 -54 7 -16 18 -28 23 -28
5 0 0 16 -12 36 -12 19 -21 37 -21 40 0 12 48 -54 61 -83 8 -18 17 -33 21 -33
12 0 11 4 -34 82 -52 91 -73 119 -83 110 -5 -4 -5 -1 -1 6 16 28 -132 190
-212 231 -23 12 -54 21 -69 21 -27 0 -27 0 10 -20z"/>
<path d="M9173 13994 l-68 -67 -50 27 c-27 14 -63 28 -80 32 -29 5 -29 5 -11
-10 11 -9 24 -16 29 -16 4 0 28 -14 52 -30 26 -18 46 -26 50 -20 3 5 11 10 17
10 6 0 8 -3 5 -7 -4 -3 -2 -12 4 -19 8 -10 6 -12 -10 -9 -12 2 -21 -1 -21 -6
0 -6 -4 -8 -8 -5 -9 6 -102 -142 -102 -162 0 -6 -4 -12 -9 -12 -5 0 -11 -9
-14 -20 -8 -31 -10 -34 -24 -48 -7 -8 -21 -11 -30 -8 -13 5 -13 4 -4 -8 9 -11
6 -13 -15 -13 -18 0 -22 2 -13 8 8 5 10 9 5 9 -5 0 1 12 15 27 l24 27 -25 -15
c-37 -23 -99 -109 -106 -146 -6 -34 -29 -61 -41 -49 -4 4 -2 20 4 37 11 27 10
30 -5 24 -22 -8 -8 5 20 19 12 6 24 18 26 26 4 13 2 13 -14 0 -10 -9 -31 -22
-46 -29 -36 -18 -138 -113 -138 -129 0 -6 -5 -12 -11 -12 -20 0 -2 159 27 252
15 46 38 106 53 133 14 28 27 53 29 57 2 4 -8 1 -23 -5 -32 -15 -90 -127 -88
-171 2 -23 0 -26 -6 -12 -5 14 -13 0 -30 -58 -13 -42 -20 -84 -17 -92 3 -8 2
-13 -3 -9 -5 3 -12 -25 -16 -62 -3 -38 -8 -84 -11 -103 l-6 -35 38 35 c21 19
41 38 44 41 12 14 50 29 74 29 26 0 56 32 56 62 0 9 5 20 11 24 8 4 9 -3 4
-25 -7 -32 2 -40 24 -18 10 10 12 9 9 -1 -2 -8 12 -22 31 -32 50 -28 53 -33
40 -66 -7 -16 -13 -36 -14 -44 -3 -38 -16 -56 -42 -58 -64 -5 -88 -18 -116
-64 -25 -40 -29 -56 -30 -135 -2 -97 12 -143 45 -143 10 0 42 12 70 26 89 45
229 94 269 94 47 0 49 8 6 38 -17 12 -27 22 -21 22 6 0 24 -10 40 -22 24 -19
41 -23 111 -23 l83 0 59 -62 c72 -75 82 -100 51 -125 -12 -10 -31 -18 -41 -18
-23 0 -61 20 -72 38 -5 8 -14 9 -25 3 -9 -4 -42 -14 -72 -21 -30 -7 -68 -20
-85 -28 -16 -9 -55 -21 -85 -29 l-55 -13 60 7 c33 4 95 7 138 7 42 1 77 5 77
9 0 5 16 -6 35 -24 19 -19 35 -37 35 -41 0 -4 20 -37 45 -73 25 -37 48 -78 51
-92 8 -29 -10 -196 -23 -216 -8 -12 -34 98 -34 140 1 12 -7 24 -17 27 -20 7
-52 56 -52 80 0 19 -11 21 -27 5 -9 -9 -1 -26 31 -68 37 -48 45 -67 56 -134
13 -80 8 -183 -10 -218 -19 -35 -30 -10 -26 62 3 56 1 69 -11 69 -12 0 -13 8
-8 40 4 25 3 40 -3 40 -6 0 -17 2 -24 5 -10 4 -22 -16 -41 -67 -15 -40 -36
-91 -47 -113 -11 -22 -27 -73 -35 -113 -17 -81 -35 -122 -78 -176 -21 -26 -31
-53 -37 -98 -5 -35 -23 -110 -40 -168 -30 -103 -87 -372 -110 -520 -6 -41 -10
-113 -8 -160 3 -73 6 -85 22 -88 13 -3 16 0 11 9 -6 9 -3 10 10 5 10 -4 25 -1
34 8 9 8 45 16 83 18 l66 4 6 -36 c9 -53 8 -60 -11 -61 -11 0 -13 -3 -6 -6 16
-6 -1 -43 -20 -43 -7 0 -21 -7 -31 -15 -19 -15 -19 -15 2 -15 12 0 39 17 60
38 42 41 42 39 27 154 -4 35 -3 37 15 26 10 -7 17 -16 14 -20 -3 -4 1 -5 8 -3
8 3 43 -5 78 -18 l64 -24 -30 -16 c-16 -9 -26 -16 -22 -17 16 0 143 52 158 65
9 8 20 12 24 8 4 -4 4 1 0 11 -5 14 -4 17 4 12 7 -4 12 -1 12 8 0 9 5 16 10
16 6 0 10 7 10 15 0 8 4 15 9 15 5 0 13 10 17 23 4 12 11 25 16 28 6 4 6 19 0
40 -6 19 -11 26 -11 17 -2 -27 -72 -138 -95 -150 -19 -10 -18 -8 4 17 18 21
20 27 8 22 -15 -5 -16 -1 -12 22 4 16 1 32 -5 35 -6 4 -10 19 -10 34 1 17 3
21 6 10 9 -37 26 -18 19 22 -4 25 -2 40 4 40 5 0 10 8 11 18 0 14 2 14 9 -3 7
-17 9 -16 10 10 1 17 4 24 7 17 3 -7 2 -25 -2 -39 -5 -21 -8 -24 -16 -12 -7
12 -9 12 -9 -2 0 -8 7 -24 16 -35 8 -10 13 -14 10 -7 -3 6 -3 19 1 30 6 15 8
13 13 -12 l6 -30 5 37 c3 20 1 34 -3 32 -4 -3 -8 14 -8 38 l1 43 14 -30 13
-30 -5 40 -5 40 22 -25 c12 -14 19 -19 15 -12 -3 6 -2 12 2 12 5 0 14 -15 21
-33 15 -42 15 -50 0 -41 -7 4 -8 3 -4 -5 12 -19 28 -1 22 25 -5 17 -2 24 9 24
8 0 15 5 15 11 0 5 5 7 10 4 6 -4 10 -3 9 2 -3 20 2 33 14 33 13 0 43 40 39
53 -1 5 1 6 6 3 5 -3 18 8 30 24 12 16 42 43 67 60 l45 31 77 -25 c82 -27 153
-40 265 -51 73 -7 127 5 150 32 11 14 9 15 -25 11 -24 -3 -37 0 -37 8 0 14
-23 24 -56 24 -13 0 -24 3 -24 8 0 6 -71 42 -84 42 -12 0 -117 70 -137 92 -28
30 -58 41 -111 40 -21 -1 -38 3 -38 9 0 5 6 9 13 9 7 0 18 9 24 19 11 17 9 21
-8 26 -12 4 -26 2 -32 -4 -14 -14 -27 -14 -27 -1 0 6 7 10 16 10 14 0 14 3 4
15 -11 13 -15 13 -21 3 -7 -10 -9 -9 -9 5 0 24 -27 21 -33 -5 -5 -18 -9 -19
-21 -9 -10 9 -20 10 -33 3 -12 -7 -25 -6 -44 3 -14 8 -44 15 -67 16 -27 2 -38
7 -35 15 2 7 -5 15 -16 19 -12 3 -19 11 -15 16 9 15 -15 39 -38 39 -16 0 -19
5 -14 23 3 12 6 30 6 40 0 9 6 17 14 17 8 0 16 10 18 23 2 16 9 21 26 20 14
-2 22 3 22 12 0 11 11 15 40 15 34 0 40 3 40 22 0 20 1 21 20 3 19 -17 21 -17
38 -2 25 23 29 21 36 -9 8 -31 28 -27 36 7 6 23 6 23 18 4 6 -11 12 -15 12 -8
0 21 37 35 60 23 16 -9 20 -8 20 5 0 9 7 18 15 21 18 7 20 21 3 27 -7 2 -3 2
10 0 15 -2 22 2 22 12 0 9 -9 15 -25 15 -16 0 -25 6 -25 15 0 8 4 15 9 15 5 0
12 7 15 16 5 13 1 15 -18 10 -27 -7 -56 23 -56 56 0 10 -7 18 -15 18 -8 0 -15
5 -15 10 0 6 5 10 12 10 6 0 8 3 4 8 -4 4 -13 7 -19 7 -7 0 -23 21 -36 48 -13
26 -30 47 -36 47 -17 0 -102 84 -108 107 -3 10 -8 34 -11 54 -4 21 -13 42 -20
48 -8 7 -12 21 -9 31 3 11 1 20 -3 20 -13 0 -14 53 -2 67 5 7 7 16 4 22 -4 5
20 37 52 70 31 34 56 61 54 61 -2 0 -13 -5 -25 -11 -18 -9 -17 -6 7 20 32 34
29 56 -4 26 -11 -10 -20 -15 -20 -11 0 14 33 71 53 94 13 14 16 22 8 22 -8 0
-11 8 -8 20 3 11 0 20 -5 20 -35 0 152 135 201 146 28 6 41 11 113 43 53 23
138 26 138 4 0 -7 -6 -13 -13 -13 -7 0 -22 -6 -32 -14 -18 -13 -18 -14 8 -9
15 3 30 9 33 14 3 5 16 9 30 9 14 0 22 4 19 10 -3 6 0 10 7 10 10 0 9 3 -2 11
-12 8 -9 9 10 4 14 -3 31 -7 37 -9 7 -1 24 -12 37 -25 l24 -23 -1 68 c-2 50
-6 68 -17 71 -10 3 -11 2 -4 -4 15 -11 14 -41 -3 -47 -15 -6 -18 10 -3 19 9 5
-26 43 -93 102 -14 12 -28 19 -31 16 -3 -4 -6 1 -6 11 0 9 -8 19 -17 23 -10 3
-30 15 -45 25 -16 11 -32 17 -37 14 -5 -3 -7 4 -4 16 3 17 2 19 -5 9 -6 -8
-12 -10 -16 -3 -10 17 -67 42 -79 35 -6 -4 -8 0 -4 11 4 10 3 15 -3 11 -6 -3
-10 -9 -10 -13 0 -11 59 -77 70 -78 5 -1 17 -2 25 -3 8 0 15 -8 15 -17 0 -9
-5 -12 -12 -8 -7 4 -8 3 -4 -5 4 -6 12 -9 17 -6 5 4 9 1 9 -6 0 -6 14 -25 30
-41 39 -36 38 -46 -4 -45 -25 1 -32 5 -28 16 3 9 1 12 -6 7 -7 -4 -12 -2 -12
6 0 18 -80 99 -91 92 -5 -3 -6 3 -2 12 5 13 3 16 -10 11 -11 -4 -14 -2 -11 7
4 9 -3 13 -21 10 -20 -2 -25 1 -21 12 6 14 2 16 -49 19 -16 1 -31 7 -33 13 -2
6 -10 8 -18 5 -10 -4 -12 0 -7 13 5 13 3 16 -9 11 -9 -3 -23 2 -32 12 -16 18
-37 19 -83 5 -20 -6 -23 -3 -23 24 0 21 6 31 20 35 11 3 18 2 16 -2 -3 -4 4
-7 15 -7 13 0 19 6 17 17 -2 9 2 17 7 17 6 1 10 -4 10 -10 0 -14 15 -28 30
-28 6 0 4 4 -4 9 -12 8 -12 13 3 36 15 22 20 24 34 14 15 -11 15 -11 4 1 -7 8
-16 15 -20 16 -4 0 -20 6 -37 13 -59 25 -171 15 -272 -25 -86 -33 -253 -126
-277 -153 -11 -12 -24 -21 -30 -21 -17 0 63 66 122 101 28 17 52 32 52 33 0 7
-84 5 -89 -1 -8 -11 -83 -45 -87 -40 -6 5 50 157 76 205 12 23 26 42 31 42 5
0 28 -20 52 -45 28 -28 53 -45 68 -45 20 0 15 8 -41 65 l-64 65 24 27 c14 16
45 49 69 76 68 71 31 56 -46 -19z"/>
<path d="M7667 13093 c-132 -125 -126 -114 -137 -255 -16 -201 -29 -406 -45
-713 -9 -159 -22 -352 -30 -427 -8 -75 -15 -165 -15 -198 0 -45 -6 -72 -23
-103 -13 -23 -29 -64 -36 -92 -14 -58 -33 -105 -42 -105 -8 0 -31 55 -36 85
-7 48 -3 484 7 630 6 88 13 294 15 457 2 164 7 302 10 308 13 21 -7 31 -27 13
-56 -50 -218 -276 -218 -304 0 -9 -3 -18 -6 -22 -9 -9 -18 -114 -16 -177 1
-30 4 -116 6 -190 2 -74 8 -161 13 -192 6 -34 6 -63 0 -73 -5 -9 -6 -80 -3
-158 3 -79 2 -156 -3 -172 l-8 -30 -7 32 c-7 31 -19 303 -18 393 1 25 4 69 8
99 3 30 1 86 -5 125 -6 39 -12 121 -13 182 -3 110 -3 111 -22 90 -48 -54 -180
-280 -274 -470 -221 -447 -369 -927 -437 -1421 -22 -157 -45 -487 -45 -645 0
-148 22 -472 41 -617 12 -89 21 -106 45 -84 17 17 233 91 351 120 128 33 394
81 442 81 17 0 31 4 31 8 0 15 -36 42 -45 35 -4 -5 -5 -3 -2 3 4 7 0 31 -8 54
-22 63 -18 62 16 -5 46 -92 49 -94 159 -96 52 -1 106 -7 119 -13 20 -9 26 -7
42 12 10 13 15 30 12 38 -3 9 -1 19 4 23 5 3 13 21 17 40 l6 34 -22 -19 -22
-19 17 27 c10 17 14 34 9 47 -6 18 -9 16 -32 -14 -14 -18 -33 -38 -43 -44 -17
-11 -17 -10 -3 11 19 31 32 118 17 118 -6 0 -11 7 -11 17 0 14 2 14 20 -2 24
-21 31 -18 19 10 -5 13 -8 15 -8 5 -1 -13 -2 -13 -11 0 -5 8 -7 23 -4 33 5 16
3 17 -15 8 -25 -14 -27 -4 -5 27 8 12 12 27 9 32 -3 5 -8 20 -10 32 -4 22 -4
22 10 4 8 -11 15 -15 15 -9 0 6 -7 16 -15 23 -9 7 -15 30 -16 54 0 35 -2 38
-9 18 -18 -45 -39 -205 -29 -223 12 -24 12 -50 0 -30 -7 11 -10 10 -14 -5 -2
-10 -5 12 -6 49 -1 41 8 102 20 150 26 103 31 137 18 137 -6 0 -7 -4 -4 -10 3
-5 1 -10 -4 -10 -6 0 -11 5 -11 11 0 5 -4 8 -8 5 -5 -3 -9 0 -9 7 0 7 -4 21
-8 32 -5 11 -5 17 0 13 4 -4 15 -2 23 5 13 10 14 9 3 -11 -6 -12 -9 -26 -6
-31 9 -15 44 0 43 17 0 10 3 30 7 46 6 22 5 27 -5 21 -9 -6 -10 -3 -1 13 6 11
11 31 11 44 0 13 6 34 13 48 18 34 27 71 16 64 -14 -8 -11 2 15 56 13 28 20
50 15 50 -6 0 -7 5 -4 10 4 6 11 7 17 4 7 -4 8 -2 4 5 -4 6 -2 18 4 26 7 8 10
20 8 27 -3 8 -12 -1 -21 -19 -9 -17 -22 -35 -28 -38 -10 -7 38 85 71 135 21
31 34 62 31 74 -1 4 6 20 15 34 10 15 13 27 7 29 -6 2 -18 10 -28 17 -16 12
-15 13 11 9 20 -3 37 2 53 16 13 12 21 21 16 21 -4 0 3 9 16 20 13 10 18 19
11 20 -8 0 -10 8 -7 23 4 15 1 28 -9 36 -9 8 -16 19 -16 25 0 6 9 0 19 -13 21
-27 51 -23 51 7 0 10 5 23 11 29 6 6 9 17 6 25 -3 8 -9 3 -16 -14 -11 -29 -21
-37 -17 -15 1 7 12 27 24 44 23 33 30 73 11 73 -5 0 -7 5 -4 10 4 6 11 8 16 5
5 -4 9 -1 9 6 0 7 7 20 16 30 12 13 12 19 3 25 -8 4 -10 3 -5 -4 4 -7 4 -12
-1 -12 -4 0 -21 -17 -37 -37 -16 -20 -23 -32 -15 -28 8 5 -6 -14 -29 -43 -45
-53 -62 -67 -40 -32 16 26 2 39 -17 14 -10 -14 -14 -15 -15 -5 0 8 23 36 50
61 36 33 50 54 50 73 0 15 -6 27 -12 27 -10 0 -10 2 0 9 23 14 -12 151 -38
151 -7 0 -7 6 -1 19 6 10 8 21 6 25 -3 3 -2 4 1 1 4 -2 16 1 27 7 20 11 20 11
0 -16 -21 -26 -21 -26 -2 -63 10 -21 19 -43 19 -50 0 -7 3 -12 8 -11 6 3 13
-7 11 -14 -15 -52 2 -65 21 -15 6 17 18 44 26 59 17 32 18 52 2 42 -7 -4 -6 1
3 12 22 26 31 74 12 67 -7 -3 -20 -17 -28 -32 -13 -24 -14 -25 -15 -4 0 12 4
24 9 27 5 3 19 23 30 43 20 36 20 37 1 14 -11 -13 -20 -20 -20 -15 0 4 -12 -3
-27 -17 -31 -27 -18 -6 26 45 28 31 12 27 -29 -8 -22 -20 -22 -19 3 12 15 19
30 44 33 58 3 13 9 22 13 20 4 -3 3 21 -1 52 -19 129 -20 169 -8 177 7 4 16 2
20 -5 6 -9 9 -9 15 1 6 9 10 8 15 -6 6 -18 8 -17 24 7 9 14 17 38 18 54 2 52
-13 297 -23 379 -6 44 -14 116 -18 160 -5 44 -16 119 -25 167 -13 70 -15 103
-6 175 13 115 13 362 -1 458 -5 42 -11 123 -12 181 -1 57 -3 104 -5 104 -2 0
-40 -35 -85 -77z"/>
<path d="M9923 12798 c-13 -6 -23 -15 -23 -20 0 -5 -17 -17 -37 -27 -59 -27
-113 -62 -113 -73 0 -5 5 -6 12 -2 12 8 91 29 163 44 75 16 137 -11 88 -39
-13 -7 -14 -12 -6 -23 6 -7 13 -38 15 -69 l4 -56 -40 -1 c-31 0 -36 1 -21 8
18 8 18 9 -5 10 l-25 1 25 11 25 11 -35 11 c-31 10 -35 14 -33 45 1 24 -2 30
-10 22 -6 -6 -30 -11 -53 -11 -24 0 -46 -4 -49 -10 -3 -5 -15 -10 -26 -10 -12
0 -19 -7 -19 -19 0 -11 -3 -26 -6 -35 -4 -10 -1 -16 9 -16 8 0 20 -14 27 -30
20 -48 83 -96 142 -108 48 -9 57 -8 101 15 43 23 48 29 43 52 -3 14 -3 20 0
14 15 -35 64 6 64 52 0 8 4 15 9 15 4 0 6 11 3 25 -2 14 2 32 9 41 8 9 14 22
14 28 1 6 5 19 9 29 5 9 6 23 3 31 -10 24 -95 68 -160 82 -73 16 -76 16 -104
2z"/>
<path d="M10495 12319 c-22 -10 -44 -20 -49 -22 -6 -2 -2 -14 7 -27 26 -37 22
-85 -10 -109 -14 -12 -36 -24 -47 -27 -15 -3 -34 -33 -65 -97 -24 -51 -48 -95
-54 -98 -5 -4 -11 -24 -14 -46 -3 -30 0 -43 16 -57 17 -15 20 -27 15 -60 -4
-29 -3 -37 5 -26 5 8 7 18 4 24 -4 5 -1 6 6 2 7 -5 10 -11 7 -14 -3 -3 -1 -11
6 -19 6 -8 7 -13 2 -12 -14 3 -44 -12 -44 -23 0 -6 6 -6 14 2 10 7 21 8 31 3
15 -9 15 -11 -1 -24 -11 -9 -15 -9 -10 -1 4 6 2 12 -3 12 -13 0 -15 -26 -3
-34 4 -2 14 -1 22 4 16 10 60 -16 60 -36 0 -16 16 -19 25 -4 3 6 1 10 -4 10
-26 0 -8 16 20 18 44 3 69 -6 62 -24 -3 -7 0 -14 7 -14 9 0 10 -3 1 -13 -8
-10 -4 -20 19 -42 30 -29 54 -29 30 0 -10 12 -10 18 0 30 10 12 9 15 -6 15
-13 0 -19 8 -21 26 -1 22 2 25 23 21 28 -5 42 9 25 26 -15 15 -14 27 4 27 8 0
15 5 15 11 0 6 7 17 15 25 21 21 19 34 -5 34 -11 0 -20 6 -20 13 0 6 -7 25
-16 42 -10 20 -13 41 -8 69 9 57 24 76 59 77 27 0 28 1 9 9 -26 10 -40 56 -23
76 6 8 8 14 3 14 -5 0 2 9 16 20 17 13 20 20 10 20 -11 0 -12 2 -3 8 9 6 10
17 4 39 -9 29 -7 31 33 44 l41 14 -37 3 c-40 3 -46 10 -26 30 9 9 4 12 -22 12
l-35 0 33 20 c17 11 32 22 32 24 0 3 -15 0 -32 -5 -26 -7 -38 -5 -58 9 -24 18
-26 18 -65 1z"/>
<path d="M10101 12229 c-11 -19 -21 -39 -21 -46 0 -21 83 -83 129 -97 43 -12
46 -12 65 11 12 14 40 28 66 34 52 11 90 28 90 41 0 5 -4 7 -8 4 -5 -3 -33 4
-63 15 -35 13 -55 17 -57 10 -2 -6 -15 -11 -28 -11 -14 0 -22 -4 -19 -10 9
-15 -7 -12 -29 5 -11 8 -30 15 -43 15 -13 0 -23 3 -23 8 0 4 -9 18 -19 31
l-19 25 -21 -35z"/>
<path d="M8245 12173 c3 -12 1 -24 -5 -28 -7 -4 -9 -18 -5 -32 3 -14 1 -31 -5
-39 -7 -7 -8 -19 -4 -25 4 -7 3 -9 -2 -6 -6 3 -10 -17 -11 -46 l-1 -52 15 48
c8 26 18 47 24 47 5 0 9 7 9 16 0 8 -4 12 -10 9 -16 -10 -12 11 5 25 23 19 28
7 15 -41 -7 -24 -12 -46 -12 -49 0 -3 -5 -14 -11 -25 -16 -28 -36 -107 -30
-121 2 -6 -3 -14 -11 -17 -9 -4 -16 -11 -16 -17 0 -6 4 -9 8 -6 5 3 5 -17 -1
-44 -6 -30 -14 -47 -20 -43 -6 3 -7 1 -3 -6 4 -7 4 -20 0 -29 -4 -9 -8 -24 -9
-32 -2 -8 -19 -61 -39 -118 -20 -56 -36 -108 -36 -115 0 -6 -6 -24 -14 -38
-11 -21 -11 -26 0 -26 15 0 101 189 140 305 14 42 30 84 36 92 10 16 11 18 -7
-40 -5 -16 -4 -21 2 -15 10 10 72 175 97 260 9 28 12 55 7 63 -6 10 -10 1 -15
-30 -4 -25 -14 -54 -22 -64 -15 -18 -15 -18 -6 1 5 11 13 43 17 72 7 52 -1 79
-33 115 -14 17 -16 17 -28 0 -11 -14 -13 -15 -14 -1 0 8 5 20 10 25 7 7 5 17
-5 30 -16 19 -16 19 -10 -3z"/>
<path d="M9952 12019 c-51 -50 -51 -66 1 -115 24 -24 47 -40 51 -37 3 4 6 0 6
-8 0 -20 80 -93 128 -118 45 -23 101 -28 119 -10 16 16 5 39 -14 32 -11 -4
-14 -2 -9 5 5 8 2 10 -8 6 -10 -4 -16 -1 -16 8 0 8 -16 21 -36 28 -31 12 -33
16 -19 26 9 7 25 10 35 7 11 -3 20 -1 20 5 0 11 -23 23 -55 29 -29 5 -48 33
-33 50 6 8 18 11 27 7 17 -7 76 -6 102 2 21 6 34 64 17 76 -12 9 -144 4 -233
-8 -28 -4 -36 -3 -26 4 12 9 12 13 -2 26 -20 21 -18 21 -55 -15z"/>
<path d="M14094 11762 c5 -8 -11 -10 -54 -7 -42 3 -70 0 -90 -10 -26 -13 -28
-20 -35 -87 -3 -40 -11 -98 -16 -130 -5 -31 -10 -72 -11 -92 -1 -35 -2 -35
-20 -19 -13 12 -15 19 -6 24 8 5 5 17 -13 43 -24 36 -43 48 -33 21 4 -8 2 -15
-3 -15 -14 0 -47 39 -40 47 4 3 -1 11 -10 18 -18 13 -10 35 13 35 8 0 14 4 14
9 0 16 -23 25 -65 26 -33 0 -40 4 -41 20 -3 36 -4 38 -16 28 -75 -56 -166 -76
-104 -22 39 34 13 41 -47 13 -107 -50 -100 -40 -124 -149 -13 -55 -27 -108
-33 -118 -8 -13 -7 -19 3 -23 10 -4 12 -38 9 -163 -3 -153 -2 -159 18 -164
l20 -5 -6 -734 c-4 -403 -11 -738 -15 -744 -5 -6 -5 -14 -1 -19 4 -4 -4 -5
-18 0 -62 18 -88 17 -106 -4 -24 -27 -34 -27 -35 2 0 12 -3 16 -6 10 -3 -10
-8 -10 -19 1 -18 18 -7 49 15 42 11 -4 10 -2 -3 9 -26 20 -32 19 -50 -7 -10
-14 -16 -17 -16 -9 0 8 8 24 17 35 13 15 10 14 -10 -3 -15 -14 -27 -20 -27
-14 0 6 7 16 15 23 9 7 13 15 10 18 -3 3 -14 -3 -25 -13 -11 -10 -20 -13 -20
-7 0 6 12 20 26 31 15 12 21 21 15 21 -7 0 -23 -12 -38 -26 -14 -14 -28 -23
-30 -20 -3 3 9 19 27 36 19 18 26 30 18 30 -8 0 -25 -11 -38 -25 -13 -14 -26
-23 -28 -20 -3 3 7 19 23 35 32 34 21 41 -15 10 -27 -23 -31 -25 -24 -7 2 7
18 21 35 31 17 10 28 20 26 22 -8 8 -60 -16 -73 -34 -8 -9 -14 -12 -14 -6 0
10 38 48 53 51 4 1 15 7 25 12 15 9 14 10 -7 11 -13 0 -40 -10 -60 -21 l-36
-22 27 28 c22 23 35 28 77 29 41 1 48 3 35 12 -17 14 -113 -4 -139 -26 -9 -8
-15 -9 -15 -2 0 6 22 21 49 34 56 25 59 40 6 28 -35 -8 -49 2 -19 14 29 11 74
7 74 -8 0 -7 11 -16 25 -18 20 -4 23 -3 14 8 -6 8 -8 14 -4 14 4 0 3 6 -3 13
-10 12 -9 57 1 74 11 18 -12 36 -59 48 -49 12 -49 13 -55 59 -6 53 4 67 42 59
27 -5 39 -32 39 -88 0 -13 7 -26 16 -29 15 -6 16 5 11 115 -3 66 -8 123 -11
126 -3 3 -12 1 -19 -5 -8 -7 -17 -9 -20 -5 -4 3 -7 1 -7 -5 0 -15 13 -15 28 0
9 9 12 7 12 -9 0 -17 -6 -20 -30 -18 -17 1 -34 6 -38 10 -4 5 -1 5 6 1 6 -4
12 -2 12 3 0 6 -6 11 -12 11 -7 0 1 7 17 15 l30 15 -1 168 c-1 148 8 450 19
615 2 31 0 57 -4 57 -14 0 -42 -575 -35 -720 l7 -115 -26 35 -26 35 5 180 c6
163 14 335 21 439 2 21 -1 51 -5 65 -4 15 -4 48 0 74 4 30 3 44 -2 39 -14 -14
-28 -198 -27 -367 1 -214 2 -205 -21 -205 -18 0 -26 24 -22 61 4 25 -21 317
-28 328 -10 18 -23 -254 -24 -507 l-1 -202 33 0 c17 0 32 -5 32 -11 0 -5 -4
-8 -9 -4 -5 3 -12 1 -16 -5 -4 -6 -19 -5 -42 5 -52 22 -55 20 -49 -27 3 -24 8
-90 12 -147 4 -57 13 -116 20 -130 8 -14 14 -33 14 -41 0 -8 9 -40 19 -70 61
-177 155 -310 221 -310 25 0 30 -4 30 -25 0 -13 -5 -36 -12 -50 -10 -22 -9
-31 7 -58 37 -65 56 -78 105 -75 35 2 45 0 45 -12 0 -10 -14 -17 -40 -21 -30
-4 -36 -7 -22 -13 9 -5 37 -3 62 3 24 6 46 11 49 11 3 0 6 -16 6 -35 0 -34 -1
-35 -42 -37 l-43 -1 50 -6 50 -6 -3 -415 c-2 -436 -10 -780 -18 -817 -4 -21
-6 -21 -56 15 -28 20 -67 51 -87 68 -20 16 -64 39 -99 49 -57 17 -63 21 -58
41 4 14 1 24 -10 28 -21 8 -80 -18 -93 -42 -6 -11 -10 -75 -10 -144 l1 -125
89 2 c53 2 95 8 104 15 10 8 15 30 15 61 0 38 4 51 21 59 17 10 33 4 99 -35
76 -44 79 -48 85 -90 4 -24 4 -52 0 -64 -6 -21 -7 -21 -48 8 -41 28 -130 53
-94 26 10 -7 17 -17 17 -24 0 -6 8 -11 19 -11 30 0 44 -25 37 -65 -7 -33 -6
-35 22 -35 15 0 33 5 40 12 19 19 16 -132 -3 -168 -8 -16 -15 -41 -15 -56 0
-29 -13 -37 -26 -16 -12 20 -15 67 -3 73 5 4 -28 32 -73 64 -75 52 -83 61 -86
93 -2 20 -10 42 -18 48 -8 7 -14 18 -14 24 0 8 -30 12 -100 11 -55 0 -100 -1
-100 -3 0 -1 5 -11 12 -21 11 -19 3 -208 -36 -816 -7 -104 -10 -193 -7 -197 3
-4 69 -27 145 -52 77 -26 143 -52 147 -58 5 -7 5 -32 2 -55 -4 -31 -2 -44 8
-47 8 -2 35 -11 61 -19 26 -8 49 -10 50 -6 2 5 10 4 18 -1 25 -15 6 -21 -84
-24 -61 -2 -91 1 -104 10 -15 12 -15 15 -2 24 13 8 13 10 -1 10 -18 0 -29 20
-29 51 0 15 -5 19 -17 15 -10 -3 -38 -8 -63 -11 -25 -3 -46 -10 -48 -15 -6
-17 -32 -11 -32 8 -1 16 -1 16 -11 -1 -7 -12 -15 -15 -22 -9 -7 5 -23 9 -36
10 -24 1 -76 42 -54 42 6 0 10 10 9 23 -1 24 -17 27 -65 12 -23 -8 -23 -9 -6
-22 22 -15 16 -17 -18 -4 -18 7 -30 6 -43 -4 -11 -8 -32 -15 -49 -15 -16 -1
-24 -4 -16 -7 9 -4 4 -10 -16 -18 -53 -23 -73 -27 -73 -16 0 6 3 10 8 10 21
-4 30 4 37 29 7 30 27 51 65 69 22 11 19 12 -24 6 -43 -5 -51 -3 -68 18 -10
14 -17 17 -16 9 2 -9 -5 -15 -17 -15 -11 0 -19 6 -17 13 1 8 -8 12 -27 10 -17
-1 -38 5 -49 15 -23 21 -32 22 -32 2 0 -9 -6 -12 -15 -8 -18 6 -15 39 3 36 7
-2 12 2 12 7 0 18 -35 10 -48 -10 -15 -24 -32 -18 -25 8 5 22 -65 52 -77 33
-3 -7 -14 -9 -22 -6 -9 4 -19 1 -23 -5 -5 -8 -11 -8 -21 1 -11 9 -19 8 -34 -6
-11 -10 -20 -13 -20 -7 0 6 6 13 13 15 6 3 2 6 -11 6 -12 1 -25 -6 -28 -14 -8
-20 -28 -19 -45 2 -12 15 -12 16 3 10 10 -3 20 -2 23 3 9 15 -9 18 -55 10 -26
-5 -49 -5 -54 1 -6 6 -6 9 2 9 7 0 12 9 12 20 0 23 -25 27 -34 5 -7 -19 -26
-20 -26 0 0 8 -16 18 -36 24 -20 5 -41 16 -48 24 -15 19 -98 3 -90 -18 5 -11
0 -12 -23 -6 -15 4 -35 6 -43 4 -8 -3 -2 6 14 19 16 14 26 30 22 36 -7 11 -44
11 -63 -1 -16 -10 -62 9 -70 29 -4 12 -14 14 -34 10 -16 -3 -29 -1 -29 4 0 5
10 11 23 13 16 3 13 5 -10 6 -18 0 -33 -3 -33 -8 0 -13 -113 -3 -121 11 -4 6
-18 9 -33 6 -14 -3 -27 0 -30 6 -2 6 -5 0 -6 -14 -1 -23 -3 -22 -15 10 -18 46
-18 29 0 -120 26 -226 37 -430 33 -595 l-4 -164 106 -48 c128 -58 239 -124
310 -184 75 -62 163 -177 196 -256 16 -38 43 -95 59 -128 l31 -60 112 -7 c78
-4 119 -11 130 -21 9 -8 35 -24 57 -35 l39 -20 96 35 c52 19 118 42 145 52 73
27 335 145 420 191 160 84 316 175 435 254 173 113 420 299 420 316 0 8 -83
24 -187 35 -35 4 -63 11 -63 15 0 5 11 30 25 56 14 26 25 53 25 59 0 7 7 26
15 41 8 16 16 47 16 69 l2 40 6 -40 c4 -22 3 -44 -1 -50 -4 -5 -8 -22 -8 -37
0 -15 -9 -50 -19 -78 -11 -27 -15 -50 -11 -50 14 0 48 82 55 132 3 26 10 50
16 53 5 4 9 17 9 30 0 13 5 27 10 30 6 4 8 11 5 16 -4 5 1 9 9 9 13 0 15 -12
12 -69 -2 -37 -1 -74 4 -80 8 -13 20 56 20 118 1 33 2 34 15 18 7 -11 11 -25
9 -32 -3 -7 -1 -16 5 -19 5 -3 12 8 16 25 4 17 9 28 13 25 11 -12 24 -104 25
-178 0 -43 4 -75 8 -72 5 3 6 -2 3 -10 -3 -9 -3 -16 1 -16 9 0 123 97 218 186
l78 73 -33 5 c-18 3 -112 13 -208 22 -96 8 -200 20 -230 25 -30 5 -98 14 -150
19 -52 6 -103 12 -113 14 -12 3 -21 -3 -26 -17 l-8 -21 -5 22 c-11 41 -36 26
-43 -25 -16 -128 -24 -143 -48 -94 -10 20 -11 31 -4 34 15 5 37 99 27 117 -9
16 27 73 95 149 23 27 50 59 59 72 15 21 18 22 26 8 10 -18 67 -45 76 -36 3 3
-5 8 -18 12 -34 11 -58 35 -58 61 0 22 134 214 150 214 7 0 21 -93 25 -168 1
-30 -1 -33 -24 -31 -30 3 -91 -19 -91 -32 0 -18 46 -32 68 -20 32 17 42 13 42
-15 0 -25 -2 -26 -40 -20 -22 3 -40 4 -40 2 0 -11 106 -36 131 -31 34 8 38 21
9 30 -11 3 -26 13 -35 21 -12 13 -11 18 15 43 37 34 38 49 5 46 -16 -2 -25 2
-25 11 0 8 3 13 8 13 33 -5 34 0 27 114 l-7 114 33 9 c18 5 34 15 36 21 3 9
-4 10 -25 4 -16 -5 -34 -6 -39 -2 -16 10 -31 91 -37 201 l-5 105 15 -50 c24
-76 58 -144 72 -145 6 0 12 -5 12 -12 0 -16 18 3 57 58 15 22 66 92 113 155
98 130 111 150 89 133 -8 -7 -22 -8 -34 -3 -11 4 -39 8 -61 8 -45 1 -75 23
-52 38 7 4 33 9 58 10 25 1 59 3 75 5 26 3 30 0 29 -19 0 -13 1 -23 2 -23 5 0
84 103 84 109 0 8 -212 6 -270 -3 l-45 -7 30 17 c17 9 31 18 33 19 4 3 -16
127 -22 132 -2 3 -14 0 -25 -7 -28 -15 -204 -59 -213 -53 -18 10 -6 32 27 47
27 13 35 23 35 42 0 30 -56 88 -77 80 -7 -3 -13 1 -13 9 0 16 16 20 24 6 3 -5
17 -8 30 -8 14 0 40 -9 59 -20 18 -11 50 -23 70 -27 20 -4 37 -11 37 -16 0 -6
7 -10 16 -10 9 0 32 -9 50 -21 39 -24 54 -19 54 20 0 22 -7 31 -30 41 -33 14
-41 40 -11 40 25 0 43 24 39 52 -3 22 -6 23 -83 21 -44 -2 -97 -5 -117 -8 -21
-2 -37 -1 -37 3 4 22 -4 144 -8 130 -7 -28 -23 -21 -24 10 -1 15 -1 160 -1
322 0 162 -3 330 -7 373 -4 48 -2 79 4 81 6 3 4 5 -2 5 -7 1 -13 8 -13 18 0
30 -14 3 -16 -30 -5 -105 -8 -138 -15 -149 -15 -24 -20 17 -17 153 l3 134 55
0 55 0 3 38 c3 35 2 37 -26 37 -16 0 -44 3 -61 6 -30 6 -32 9 -29 48 l3 41 88
0 c62 1 91 5 96 14 7 10 33 12 123 6 123 -8 138 -3 118 36 -8 14 -18 19 -31
16 -23 -6 -24 10 -4 37 11 15 13 36 8 88 -4 47 -2 68 5 68 6 0 14 17 17 38 4
20 13 55 21 77 18 49 45 229 36 232 -4 2 -6 24 -5 50 1 27 2 64 3 83 1 19 4
29 7 22 2 -6 8 -10 13 -7 4 3 1 24 -7 47 -10 31 -12 48 -4 60 5 9 13 39 17 66
l6 51 92 8 c50 4 94 8 98 8 4 0 100 -107 212 -237 190 -220 205 -240 200 -268
-4 -19 -2 -30 4 -30 6 0 19 -8 29 -18 14 -14 34 -18 88 -17 63 0 70 2 67 19
-3 13 1 17 12 13 8 -3 18 -2 21 3 4 6 -5 10 -19 10 -21 0 -26 5 -26 24 0 14 5
28 11 31 17 11 22 -2 9 -25 -10 -18 -9 -21 2 -18 7 3 28 51 47 107 28 85 31
105 20 112 -11 7 -11 9 3 9 13 0 17 8 15 30 -2 36 -10 38 -25 8 -8 -17 -11
-19 -11 -6 -1 9 6 24 15 33 18 18 7 40 -25 50 -13 4 -17 13 -13 30 5 28 -14
35 -20 8 -2 -10 -7 24 -11 76 -5 51 -5 96 -2 99 3 3 13 7 23 8 9 1 43 5 74 9
l57 6 -4 32 c-2 18 -9 88 -15 157 -6 69 -13 133 -15 142 -1 9 4 19 12 22 30
12 9 40 -31 43 -22 1 -44 7 -50 13 -8 8 -3 10 18 4 46 -11 22 12 -27 27 -30 8
-49 22 -60 42 -19 33 -37 32 -54 -5 -24 -47 -26 -48 -233 -27 -107 10 -202 19
-210 19 -43 1 -43 100 0 100 23 0 27 18 5 26 -8 4 -12 11 -8 17 3 5 1 7 -5 4
-5 -4 -18 -4 -27 -1 -13 5 -14 8 -3 15 9 6 2 9 -19 9 -18 0 -33 -4 -33 -10 0
-6 -30 -10 -69 -10 l-70 0 37 -42 c20 -23 47 -51 59 -63 12 -12 23 -27 25 -34
2 -8 14 -25 27 -40 52 -57 71 -89 65 -105 -5 -13 -9 -14 -20 -5 -11 9 -14 8
-14 -2 0 -8 -34 38 -75 101 -41 63 -75 120 -75 127 0 7 -4 13 -9 13 -5 0 -13
9 -16 20 -4 11 -22 41 -41 65 l-34 45 73 0 c59 0 74 3 74 15 0 8 -8 15 -18 15
-9 0 -19 9 -22 20 -3 11 0 20 6 20 7 0 5 5 -3 10 -13 9 -13 10 0 10 10 0 11 3
4 8 -17 11 -12 96 6 104 13 6 13 7 0 7 -14 1 -16 24 -15 169 0 99 4 170 10
174 6 5 6 8 -1 8 -6 0 -10 22 -10 55 1 30 -2 55 -6 55 -5 0 -8 7 -8 15 0 12
-14 15 -64 15 -35 0 -72 3 -82 7 -11 4 -15 3 -10 -5z m-271 -501 c45 -55 57
-77 57 -105 0 -19 -4 -37 -9 -41 -9 -5 -98 95 -108 122 -8 20 -23 15 -23 -6 0
-23 -30 -37 -42 -19 -16 27 -5 78 17 78 7 0 16 -6 18 -12 3 -7 6 2 6 20 1 19
6 32 14 32 7 0 39 -31 70 -69z m-73 -132 c0 -10 -9 -28 -19 -38 -19 -19 -19
-20 4 -41 24 -23 24 -50 -1 -50 -8 0 -14 -9 -14 -20 0 -11 5 -20 10 -20 14 0
13 -43 -2 -58 -7 -7 -22 -12 -35 -12 -22 0 -23 3 -23 73 0 45 5 78 12 85 10
10 10 15 -1 21 -7 5 -10 14 -7 20 4 6 12 9 17 6 5 -4 9 5 9 19 0 14 -4 26 -10
26 -5 0 -10 -7 -10 -16 0 -8 -4 -12 -10 -9 -16 10 -11 53 7 64 22 12 73 -22
73 -50z m-43 -451 c27 -25 33 -95 9 -104 -18 -7 -17 -44 1 -44 7 0 13 -5 13
-10 0 -6 15 -8 40 -4 36 6 40 4 40 -14 0 -13 -9 -22 -25 -26 -24 -6 -25 -9
-25 -85 0 -87 3 -91 64 -91 18 0 54 -3 80 -6 l46 -7 0 -58 c0 -33 4 -59 10
-59 6 0 8 -20 5 -52 -3 -29 -8 -87 -10 -128 -2 -41 -4 -75 -5 -75 -10 0 -7
-119 5 -180 8 -44 17 -98 20 -120 3 -22 11 -44 18 -50 8 -6 16 -40 20 -85 3
-41 9 -86 13 -99 l7 -24 -85 6 c-85 7 -86 7 -92 -18 -5 -21 -12 -25 -41 -25
-37 0 -52 22 -41 64 6 26 -19 43 -69 48 l-30 3 -3 633 c-1 347 1 632 5 632 4
0 17 -10 30 -22z m943 -3 c116 -10 209 -27 214 -40 2 -7 8 -76 12 -154 l7
-142 35 3 36 3 4 -92 4 -93 -30 0 c-16 0 -32 6 -35 13 -3 6 -71 91 -152 187
-233 278 -257 309 -250 321 5 7 23 9 49 5 22 -3 70 -8 106 -11z m-10 -395 c89
-107 124 -156 114 -158 -9 -2 -13 -10 -10 -18 12 -32 -15 -9 -80 68 -38 46
-102 119 -141 164 -40 45 -73 85 -73 87 0 6 39 15 53 13 5 -1 66 -71 137 -156z
m-860 -2685 c7 -9 44 -37 83 -62 76 -52 85 -64 69 -96 -6 -12 -13 -37 -14 -56
-2 -24 -8 -35 -21 -37 -21 -3 -47 32 -47 62 0 22 -56 64 -84 64 -15 0 -36 63
-36 109 0 24 4 31 19 31 10 0 24 -7 31 -15z"/>
<path d="M10574 11618 c-4 -6 -2 -14 4 -16 17 -5 15 -22 -7 -65 -13 -26 -15
-37 -6 -37 7 0 29 -11 49 -25 20 -14 45 -25 54 -25 14 0 14 -2 3 -9 -11 -7 -4
-19 31 -53 51 -51 93 -108 81 -108 -4 0 0 -5 10 -11 9 -5 17 -19 17 -29 0 -11
5 -20 10 -20 14 0 60 -46 60 -60 0 -6 6 -18 13 -25 49 -56 48 -60 -8 -31 -25
14 -45 21 -45 16 0 -5 16 -29 35 -54 20 -26 32 -52 29 -61 -4 -8 -1 -15 6 -15
16 0 47 -36 56 -64 3 -11 16 -32 29 -46 22 -25 22 -26 9 -114 -7 -49 -25 -145
-40 -215 -17 -85 -22 -127 -15 -129 6 -2 11 -8 11 -13 0 -4 -6 -6 -14 -3 -21
8 -26 -51 -7 -72 9 -9 11 -14 4 -10 -14 7 -36 -51 -22 -59 5 -4 9 -11 9 -16 0
-6 -4 -8 -9 -5 -11 7 -25 -49 -16 -64 3 -5 2 -10 -3 -10 -13 0 -21 -45 -11
-63 6 -10 4 -17 -7 -21 -12 -5 -15 -14 -10 -36 3 -17 2 -30 -3 -30 -12 0 -20
-36 -11 -51 5 -7 2 -18 -6 -27 -8 -8 -12 -22 -9 -33 4 -11 2 -19 -5 -19 -8 0
-11 -11 -8 -30 3 -16 0 -30 -5 -30 -5 0 -7 -13 -4 -29 4 -19 2 -31 -6 -34 -9
-3 -9 -11 -1 -35 10 -26 10 -30 -4 -25 -12 5 -14 1 -8 -20 4 -16 2 -27 -4 -27
-15 0 -12 -23 7 -61 16 -30 18 -32 21 -12 2 12 -2 32 -9 45 -11 20 -10 22 3
10 14 -11 17 -7 22 33 4 25 4 49 1 55 -3 5 -2 10 3 10 8 0 29 92 37 167 2 18
6 36 9 41 5 8 16 69 31 172 3 14 15 81 28 150 14 69 35 181 47 250 23 131 44
202 36 120 -3 -25 -12 -78 -20 -119 -9 -40 -13 -77 -11 -82 3 -4 1 -10 -5 -14
-5 -3 -10 -18 -10 -33 0 -15 -7 -59 -15 -99 -8 -39 -17 -86 -19 -105 -3 -18
-9 -53 -15 -78 -24 -105 -64 -349 -65 -397 -1 -30 -4 -46 -9 -40 -5 7 -6 -10
-3 -38 2 -27 1 -41 -3 -31 -5 14 -11 -2 -21 -56 -7 -42 -9 -82 -5 -89 5 -8 4
-10 -3 -5 -7 4 -12 6 -12 4 0 -2 -11 -66 -25 -143 -14 -77 -35 -194 -46 -260
-10 -66 -24 -143 -31 -171 -11 -53 -4 -144 12 -144 11 0 24 85 15 99 -3 6 -2
11 3 11 5 0 12 17 15 38 3 20 17 105 32 187 63 357 87 502 90 536 1 20 5 42 9
48 4 5 8 34 10 63 2 29 7 61 11 70 4 9 7 42 8 71 1 30 5 53 8 51 12 -7 17 50
7 70 -7 12 -7 16 0 12 11 -7 28 51 18 61 -3 4 -2 11 3 17 7 10 12 34 27 136 2
14 10 61 18 104 8 44 13 82 11 85 -2 4 3 14 10 24 11 15 12 12 11 -20 0 -21
-4 -40 -7 -43 -4 -3 -9 -30 -12 -60 -3 -31 -8 -62 -11 -70 -3 -8 -10 -42 -15
-75 -22 -149 -62 -392 -66 -406 -3 -10 1 -19 11 -23 14 -5 16 -1 11 26 -3 18
-3 27 0 20 7 -17 23 -5 16 13 -3 8 -1 15 5 15 5 0 13 -7 16 -16 3 -8 10 -13
15 -10 5 3 12 -13 16 -37 6 -32 9 -36 12 -19 3 13 -3 41 -11 63 -13 31 -14 45
-5 61 6 11 9 31 6 45 -2 14 -1 37 4 51 5 15 11 40 14 56 3 15 8 26 11 23 3 -2
0 -24 -6 -48 -14 -60 -20 -153 -11 -168 8 -12 18 29 26 109 2 19 8 49 14 65 7
24 8 15 5 -40 -3 -67 -3 -68 7 -25 6 25 13 55 15 68 3 13 9 20 14 17 10 -6 24
85 24 166 1 41 4 55 13 52 22 -8 27 27 9 63 -23 50 -20 66 18 92 24 16 41 21
60 16 16 -4 26 -2 26 5 0 29 40 3 121 -80 70 -70 104 -97 155 -120 46 -21 69
-27 78 -20 11 10 90 6 108 -5 13 -8 9 10 -8 34 -8 12 -13 26 -9 31 7 13 -87
24 -163 18 -62 -4 -92 8 -77 33 3 5 -1 10 -10 10 -10 0 -32 15 -51 34 -29 29
-35 44 -44 106 -6 40 -14 77 -17 84 -4 6 -8 14 -8 17 0 3 -14 18 -32 33 -17
14 -36 39 -41 55 -9 25 -8 30 9 34 10 3 19 1 19 -4 0 -5 5 -9 10 -9 7 0 6 8
-1 22 -8 14 -14 18 -17 10 -2 -6 -8 -12 -14 -12 -6 0 -8 7 -4 15 4 11 -1 15
-17 15 -27 0 -67 26 -67 44 0 7 -20 19 -44 26 -25 7 -47 19 -51 28 -8 22 2 27
22 11 14 -11 15 -11 9 0 -6 10 -4 12 10 7 112 -34 257 -60 404 -71 47 -4 107
-13 134 -21 73 -21 89 -16 26 7 -30 11 -65 23 -78 26 -27 7 -100 43 -87 43 6
0 -3 8 -20 19 -37 23 -95 78 -95 90 0 6 -18 20 -40 32 -21 12 -37 26 -34 31 3
5 -3 12 -14 15 -12 3 -25 18 -30 33 -7 19 -21 32 -46 40 -20 6 -36 18 -36 26
0 9 -4 13 -9 9 -11 -6 -34 29 -25 38 3 3 -4 10 -15 17 -12 6 -21 15 -21 20 0
4 -27 36 -60 70 -33 34 -60 65 -60 70 0 5 -12 15 -27 22 -15 7 -39 31 -54 53
-15 23 -38 46 -51 53 -13 7 -31 26 -40 42 -9 17 -24 30 -33 30 -8 0 -15 6 -15
14 0 18 -77 48 -102 40 -12 -3 -18 -2 -15 3 3 5 -3 17 -15 27 -17 15 -22 16
-29 5 -5 -8 -9 -11 -10 -6 -1 4 -2 10 -3 15 -6 30 -38 43 -52 20z"/>
<path d="M9536 11122 c-17 -93 -22 -207 -7 -198 20 13 131 7 176 -9 20 -7 20
-6 1 9 -11 9 -29 16 -40 17 -12 0 -30 5 -41 10 -14 6 -7 7 24 3 31 -4 41 -3
37 5 -4 6 -16 11 -26 11 -25 0 -35 17 -20 35 17 21 30 19 30 -5 0 -11 7 -20
15 -20 8 0 15 5 15 10 0 6 -4 10 -10 10 -5 0 -10 7 -10 15 0 8 -9 15 -20 15
-11 0 -20 5 -20 11 0 5 4 8 8 5 4 -2 14 4 21 16 9 14 9 18 1 13 -7 -4 -15 -4
-19 1 -3 5 -18 17 -32 26 -20 13 -29 14 -39 5 -10 -9 -11 -9 -8 3 5 16 14 17
63 6 29 -7 29 -7 7 6 -12 8 -19 18 -15 23 4 4 3 5 -4 2 -6 -4 -18 -4 -27 -1
-13 5 -14 9 -5 20 7 9 8 14 1 14 -6 0 -17 6 -25 14 -12 12 -16 2 -31 -72z"/>
<path d="M9520 10876 c0 -23 12 -54 34 -88 40 -64 48 -88 48 -141 -1 -22 5
-55 13 -74 15 -36 6 -50 -22 -34 -10 6 -12 11 -5 11 24 0 11 19 -30 44 -41 25
-42 26 -15 26 47 0 30 24 -28 36 -11 3 -36 8 -55 13 -29 7 -31 9 -10 10 30 1
41 41 11 41 -9 0 -26 7 -37 16 -16 13 -16 15 -1 10 29 -9 20 29 -14 58 -17 14
-27 30 -24 36 11 17 -7 11 -21 -7 -19 -26 -17 -32 12 -44 15 -5 24 -12 21 -15
-3 -3 -14 -1 -25 5 -17 9 -21 5 -32 -32 -19 -60 -48 -116 -87 -166 l-34 -45
32 -32 c17 -18 38 -30 45 -27 8 3 11 10 7 16 -3 6 -1 7 6 3 9 -6 9 -11 0 -22
-6 -8 -9 -17 -5 -21 3 -3 6 -1 6 5 0 7 7 12 15 12 8 0 15 -4 15 -10 0 -5 -4
-10 -10 -10 -5 0 -10 -5 -10 -11 0 -6 9 -4 21 5 12 8 27 12 34 10 6 -3 18 2
25 11 19 23 34 18 18 -7 -8 -13 -20 -39 -27 -58 -13 -37 -41 -275 -41 -346 0
-37 -3 -43 -26 -48 -15 -4 -28 -5 -30 -4 -2 2 1 49 6 103 20 213 21 225 10
225 -5 0 -9 -3 -9 -7 3 -20 -2 -33 -12 -33 -7 0 -22 -11 -35 -25 -13 -14 -21
-25 -18 -25 3 0 -4 -13 -16 -29 -11 -16 -19 -33 -18 -38 2 -4 -16 -27 -39 -50
-23 -24 -39 -43 -35 -43 4 0 7 -28 7 -62 l0 -61 -95 -33 c-52 -17 -114 -37
-138 -44 -28 -7 -47 -19 -53 -33 -16 -35 -68 -64 -144 -82 -85 -19 -128 -44
-155 -87 -26 -43 -26 -61 0 -53 24 8 24 3 5 -61 -34 -116 -46 -228 -46 -444 0
-504 72 -905 270 -1498 57 -171 194 -537 231 -617 5 -11 48 -110 96 -220 144
-332 380 -796 464 -915 16 -23 19 -36 12 -67 -4 -21 -12 -38 -17 -38 -9 0 -49
61 -81 122 -10 18 -22 29 -27 26 -6 -3 -7 -1 -4 4 6 9 -20 52 -43 73 -3 3 -6
13 -8 22 -1 9 -14 36 -28 60 -66 113 -172 328 -271 548 -41 91 -88 191 -104
222 -16 31 -29 62 -29 67 0 6 -12 36 -26 68 -45 103 -51 117 -64 156 -9 29
-17 37 -29 34 -157 -47 -249 -79 -270 -95 -14 -10 -37 -22 -51 -25 -256 -62
-352 -78 -501 -84 l-135 -6 -12 40 c-7 22 -12 50 -12 61 0 12 -7 40 -16 62
-15 37 -15 45 -2 78 10 27 12 44 5 60 -7 14 -6 68 2 159 7 76 14 185 15 243 1
58 4 111 7 119 6 19 -43 31 -114 29 -69 -1 -77 6 -77 74 0 46 3 52 76 130 84
91 161 198 143 198 -6 0 -9 6 -6 14 3 8 3 16 -1 18 -4 2 -20 37 -36 78 -15 41
-40 98 -54 126 l-25 50 38 85 c21 46 37 95 37 109 -3 166 -2 164 -29 203 -33
48 -53 138 -41 190 7 31 3 50 -17 101 -14 34 -25 67 -25 73 0 6 -5 13 -11 15
-13 4 -16 137 -5 190 7 29 4 46 -13 81 -11 24 -21 49 -21 55 0 7 -11 17 -25
24 -50 22 -95 113 -95 190 0 20 -6 50 -12 65 -12 26 -13 22 -18 -47 -4 -53 -9
-74 -17 -72 -7 1 -13 -5 -13 -14 0 -11 5 -14 16 -10 13 5 15 -2 11 -54 -3 -42
-1 -60 8 -60 6 0 12 -7 12 -15 0 -8 -4 -12 -9 -9 -4 3 -8 -4 -8 -15 0 -12 3
-21 8 -21 4 0 8 -39 9 -88 2 -86 9 -164 18 -190 3 -7 1 -11 -4 -8 -17 11 -23
-97 -7 -135 8 -20 12 -39 9 -43 -9 -9 -13 -40 -14 -108 -1 -58 -12 -76 -22
-38 -3 13 -1 18 6 13 7 -4 8 0 4 11 -4 10 -7 21 -7 24 0 4 -5 0 -11 -8 -8 -12
-9 -9 -4 10 3 14 8 33 10 43 2 9 6 21 10 26 3 6 -1 14 -9 18 -10 5 -13 16 -10
31 4 12 10 19 15 16 5 -3 6 16 2 43 -10 82 -17 75 -32 -32 -7 -51 -18 -86 -30
-100 -10 -11 -26 -33 -35 -50 -9 -17 -15 -21 -12 -10 3 11 6 46 7 77 2 44 -2
62 -16 78 -19 21 -50 27 -60 10 -3 -5 -1 -10 4 -10 6 0 11 -7 11 -15 0 -8 -8
-15 -17 -15 -15 0 -15 2 -4 9 11 7 5 14 -25 28 -50 25 -91 27 -163 8 -33 -8
-74 -15 -93 -15 -19 0 -56 -11 -82 -25 -25 -13 -46 -22 -46 -18 0 3 -6 1 -12
-5 -7 -6 -30 -13 -50 -17 -21 -4 -38 -11 -38 -15 0 -5 -18 -16 -40 -26 -22
-10 -40 -21 -40 -25 0 -3 -13 -9 -30 -12 -16 -4 -30 -12 -30 -19 -1 -14 -101
-98 -116 -98 -11 0 -40 -43 -87 -127 -28 -50 -34 -70 -32 -107 2 -25 0 -46 -5
-46 -4 0 -14 -31 -20 -68 -16 -88 -9 -121 76 -355 169 -466 377 -853 662
-1232 154 -205 350 -421 523 -579 35 -32 83 -77 106 -99 35 -34 43 -38 49 -24
10 26 25 20 18 -7 -3 -15 1 -29 11 -40 22 -21 30 -20 52 7 10 13 32 31 49 41
25 15 35 16 50 7 16 -11 16 -12 2 -7 -12 3 -18 0 -18 -9 0 -8 -7 -15 -15 -15
-8 0 -15 -7 -15 -15 0 -22 11 -18 54 20 26 24 33 35 22 35 -10 0 -14 5 -11 10
4 6 11 8 16 5 5 -4 9 1 9 9 0 19 39 31 53 17 7 -7 16 -4 31 12 23 24 75 51 84
43 2 -3 13 5 23 17 19 22 19 21 2 -18 -12 -28 -17 -67 -17 -133 1 -121 -9
-116 -16 8 l-2 45 -12 -45 c-10 -34 -14 -40 -18 -25 -4 15 -6 12 -7 -10 -1
-21 -4 -26 -10 -16 -5 7 -14 11 -19 7 -14 -8 -4 -36 11 -32 7 1 8 1 4 -2 -5
-2 0 -13 10 -25 10 -11 12 -17 5 -13 -7 4 -19 0 -28 -8 -20 -20 -54 -21 -54
-1 0 8 -4 15 -9 15 -6 0 -6 -12 -1 -30 7 -23 5 -30 -6 -30 -35 0 -7 -37 70
-89 l47 -33 39 44 c22 24 39 38 40 32 0 -6 -13 -25 -30 -42 -16 -18 -30 -36
-30 -41 0 -4 19 -21 42 -36 46 -30 45 -31 85 31 10 15 10 12 1 -16 -6 -19 -16
-38 -21 -41 -12 -8 71 -66 108 -75 19 -5 26 -3 21 4 -3 6 -1 14 5 18 8 4 9 3
5 -4 -4 -7 -1 -12 6 -12 7 0 4 -6 -7 -12 -19 -11 -19 -11 0 -19 35 -13 42 -10
54 31 6 22 16 40 22 40 6 0 8 4 4 9 -3 5 0 13 6 16 5 4 8 14 5 22 -4 9 -2 12
7 7 8 -5 7 -2 -2 9 -17 21 0 23 32 3 12 -7 51 -26 87 -41 36 -15 89 -39 119
-53 29 -13 67 -26 83 -27 16 -2 34 -7 40 -13 11 -11 -30 -10 -76 3 -22 6 -31
4 -37 -8 -8 -13 -53 -17 -66 -6 -3 2 -17 5 -30 8 -5 1 -1 5 6 10 9 6 22 6 33
0 28 -15 21 4 -12 33 -17 15 -44 30 -61 33 -17 4 -46 16 -64 26 l-32 19 2 -24
c2 -17 -1 -23 -10 -20 -16 7 -24 -6 -29 -45 -4 -35 -3 -35 27 -20 18 9 20 9
10 -2 -18 -19 -16 -29 6 -29 11 0 22 -4 25 -9 15 -23 -70 9 -86 33 -6 8 -8 8
-8 0 0 -25 46 -66 108 -96 37 -18 70 -36 73 -41 9 -12 20 -11 31 5 7 9 8 7 3
-8 -5 -18 2 -25 47 -43 29 -12 64 -27 77 -34 19 -10 25 -8 37 8 13 17 16 18
24 5 5 -8 10 -23 10 -32 0 -10 17 -26 40 -38 40 -21 160 -61 160 -54 0 2 -10
13 -22 25 l-23 21 23 -7 c14 -4 27 -1 37 9 18 17 20 40 3 30 -7 -4 -8 -3 -4 5
6 9 11 9 22 0 9 -7 14 -8 14 -1 0 6 -4 13 -10 17 -5 3 -6 15 -1 28 12 33 3 51
-17 35 -15 -11 -15 -11 -5 3 7 9 10 19 6 22 -3 4 0 13 6 21 7 9 10 24 6 37 -6
19 -4 21 21 16 16 -3 56 -11 89 -18 69 -13 91 -27 57 -35 -21 -6 -27 -16 -23
-38 1 -5 -6 -3 -15 5 -16 12 -17 12 -12 -1 8 -23 -16 -51 -46 -54 -27 -3 -36
11 -13 20 8 3 24 19 37 35 17 24 19 34 10 42 -9 9 -11 8 -8 -3 2 -10 -4 -14
-17 -12 -17 2 -17 1 -5 -8 13 -8 12 -11 -7 -16 -14 -4 -20 -11 -16 -22 5 -11
3 -13 -7 -7 -8 5 -11 4 -6 -3 3 -6 -3 -16 -14 -22 -11 -6 -18 -16 -14 -22 4
-7 9 -6 15 3 8 12 11 11 19 -1 7 -11 10 -11 10 -2 0 7 5 10 11 6 8 -5 6 -10
-5 -16 -16 -9 -16 -11 1 -24 20 -15 7 -19 -16 -5 -7 5 -10 14 -7 20 4 6 3 11
-3 11 -14 0 -24 -36 -16 -59 7 -24 -14 -39 -27 -20 -6 10 -8 7 -6 -11 4 -32
27 -43 233 -110 88 -29 175 -59 193 -67 18 -8 48 -15 67 -16 18 -2 37 -6 41
-10 4 -4 21 -7 39 -7 17 0 35 -4 41 -9 5 -4 34 -13 64 -19 30 -6 87 -18 125
-26 62 -13 175 -32 333 -55 29 -4 55 -4 58 1 3 5 11 5 18 -1 24 -20 185 -27
571 -26 395 2 483 8 735 51 115 19 283 55 295 62 5 3 25 8 44 11 45 8 49 23
13 60 -33 35 -42 32 -42 -15 0 -20 -6 -34 -16 -38 -12 -4 -14 -1 -9 14 4 14 2
20 -9 20 -8 0 -18 5 -22 12 -5 7 -3 8 6 3 8 -5 11 -3 8 6 -3 8 -10 13 -16 12
-6 -2 -9 4 -5 13 3 8 0 27 -8 40 -12 23 -14 24 -21 7 -6 -12 -7 -8 -4 14 5 28
3 31 -19 28 -17 -1 -26 4 -30 16 -4 11 -11 19 -16 19 -5 0 -9 9 -9 21 0 12 -4
17 -11 13 -7 -4 -9 1 -7 12 3 13 -6 25 -27 37 l-30 17 28 -6 c27 -6 28 -6 15
15 -9 15 -20 21 -36 18 -18 -3 -22 -1 -17 11 7 18 -23 54 -38 45 -7 -4 -8 0
-3 12 6 16 4 16 -11 4 -10 -9 -14 -9 -10 -2 8 13 -24 51 -45 56 -17 3 -37 29
-37 47 0 11 3 10 14 -4 8 -11 15 -16 15 -10 -1 11 -25 44 -33 44 -3 0 -4 -17
-2 -37 l3 -37 -16 27 c-19 31 -32 35 -32 10 -1 -16 -2 -15 -13 3 -7 11 -28 40
-47 63 -19 24 -34 47 -33 52 2 5 -5 5 -14 2 -14 -5 -13 -9 7 -25 13 -10 20
-21 17 -24 -2 -3 6 -17 19 -31 13 -14 22 -29 19 -32 -6 -5 -25 15 -79 83 -15
20 -33 36 -38 36 -6 0 -4 -7 3 -17 12 -14 12 -16 -1 -11 -8 3 -14 15 -13 27 3
20 -11 29 -20 14 -2 -5 -2 -2 -1 4 3 11 -40 63 -51 63 -3 0 -5 -8 -5 -18 0
-10 -6 -26 -14 -37 -7 -11 -17 -31 -21 -44 -27 -87 -160 -140 -242 -97 -144
75 -344 415 -639 1086 -80 183 -107 247 -206 495 -400 1000 -578 1719 -578
2338 0 150 2 166 30 256 17 53 45 123 63 155 26 49 41 64 82 85 64 32 147 39
199 17 22 -9 84 -48 138 -88 78 -56 102 -68 108 -57 19 30 23 134 12 344 -7
121 -9 243 -6 272 l7 52 -34 -10 c-249 -74 -472 -128 -536 -129 -8 0 -13 14
-13 36 0 19 -4 33 -9 30 -16 -10 -22 46 -15 136 6 85 6 88 -15 88 -11 0 -21 6
-21 13 0 14 -27 31 -67 42 -21 6 -23 3 -23 -29z m-1247 -4199 c-1 -34 -7 -75
-13 -91 -6 -16 -8 -38 -4 -50 5 -16 3 -18 -6 -10 -14 13 -50 7 -50 -9 0 -6 -3
-8 -6 -4 -8 8 -44 -25 -38 -35 3 -4 -2 -8 -11 -8 -9 0 -13 5 -9 11 4 8 -3 10
-22 7 -16 -3 -23 -3 -16 -1 6 3 12 14 12 26 -1 22 -1 22 -17 2 -14 -18 -15
-18 -9 -2 3 10 6 23 6 28 0 5 11 7 25 3 16 -4 25 -2 25 6 0 6 4 9 9 5 5 -3 13
0 16 6 4 6 18 8 31 5 35 -9 68 27 60 66 -3 17 -6 44 -6 60 0 29 -1 30 -35 24
-46 -9 -165 -48 -236 -78 -70 -30 -189 -99 -189 -110 0 -4 -6 -8 -12 -8 -28 1
73 74 157 114 125 60 231 93 330 105 6 1 9 -25 8 -62z m1104 -801 c-1 -14 3
-21 15 -20 14 1 16 -2 7 -17 -5 -11 -15 -19 -20 -19 -6 0 -8 -8 -5 -17 6 -16
6 -16 -12 0 -10 9 -22 14 -25 10 -4 -3 -16 2 -27 12 -11 10 -20 13 -20 7 0
-14 50 -53 60 -47 5 3 12 0 16 -6 4 -8 3 -9 -4 -5 -7 4 -12 3 -12 -3 0 -15 16
-22 34 -15 9 3 13 11 9 18 -3 6 -2 8 2 3 5 -4 17 0 27 10 22 19 23 6 3 -21 -8
-11 -13 -29 -10 -40 4 -18 4 -18 -6 2 -7 12 -16 22 -21 22 -13 0 -10 -9 11
-31 13 -14 21 -17 26 -9 5 8 13 6 26 -6 19 -17 20 -17 13 1 -5 12 -4 16 4 11
6 -3 15 2 21 11 6 10 11 13 11 6 0 -6 -5 -15 -10 -18 -6 -4 -7 -11 -4 -17 4
-6 10 -5 15 3 7 11 9 11 9 -2 0 -9 14 -22 30 -29 45 -19 32 -20 -30 -4 -30 8
-73 19 -95 24 -81 17 -89 20 -96 31 -4 7 -1 19 7 26 19 19 18 25 -11 46 -29
21 -33 13 -7 -17 17 -21 17 -21 -3 -5 -11 9 -26 18 -34 21 -8 2 -15 12 -17 21
-1 9 2 15 7 11 5 -3 7 -10 4 -15 -4 -5 -2 -9 3 -9 19 0 21 14 5 32 -16 18 -16
18 0 12 17 -6 22 4 18 35 -2 7 2 10 7 7 5 -3 15 1 22 9 7 8 16 12 21 9 15 -9
10 8 -8 30 -10 12 -3 8 14 -8 20 -18 31 -37 30 -50z m419 -303 c70 -70 161
-125 221 -135 17 -2 20 -6 13 -18 -7 -11 -12 -12 -17 -4 -5 7 -28 14 -53 17
-55 7 -91 17 -107 30 -7 5 -13 6 -13 1 0 -5 -4 -4 -8 2 -4 6 -23 21 -43 35
-20 13 -53 44 -74 69 -20 25 -43 48 -51 53 -16 9 -29 70 -19 94 6 15 13 11 43
-27 20 -25 69 -78 108 -117z"/>
<path d="M10911 10734 c0 -7 -21 -36 -45 -65 -24 -30 -85 -118 -136 -197 l-92
-143 28 -62 c15 -34 49 -114 75 -177 26 -63 53 -116 60 -119 8 -2 10 3 6 18
-3 11 -1 19 3 16 5 -3 14 4 20 15 6 11 8 20 6 20 -3 0 -1 12 6 28 6 15 12 38
14 52 1 14 12 63 23 110 23 94 27 150 11 150 -14 0 -7 107 15 232 9 53 15 105
12 115 -3 10 -5 13 -6 7z"/>
<path d="M8583 10445 c10 -20 13 -46 10 -76 -4 -30 0 -56 10 -75 9 -17 27 -75
41 -130 26 -98 42 -124 77 -124 10 0 22 -13 29 -32 l11 -33 14 39 c18 50 10
66 -30 66 -29 0 -33 4 -37 30 -3 17 -1 30 4 30 13 0 9 27 -16 98 -32 91 -85
198 -109 219 -19 18 -20 18 -4 -12z"/>
<path d="M10786 9883 c-8 -47 -46 -251 -52 -278 -9 -43 -20 -50 -49 -27 -28
22 -60 19 -51 -5 3 -8 1 -11 -4 -8 -6 3 -10 -3 -10 -15 0 -14 4 -19 13 -14 9
6 9 4 1 -7 -28 -38 -8 -249 41 -444 14 -54 23 -100 21 -102 -5 -5 -42 133 -66
249 -11 51 -23 152 -28 223 -7 120 -8 128 -22 105 -26 -46 -12 -275 27 -445
14 -61 82 -278 83 -265 0 3 20 106 44 230 80 409 80 413 62 448 -21 41 -20 56
1 17 23 -42 29 -13 7 33 -13 27 -19 32 -22 20 -2 -10 -8 -18 -13 -18 -10 0 -5
44 12 110 5 19 9 50 9 68 0 18 5 43 11 54 6 11 7 18 1 15 -5 -4 -7 13 -4 43 5
58 -3 67 -12 13z"/>
<path d="M15563 9874 c-14 -57 -39 -219 -48 -309 -3 -33 -8 -67 -11 -77 -3
-12 4 -18 27 -23 17 -4 35 -3 40 2 5 5 8 106 7 234 -3 199 -4 218 -15 173z"/>
<path d="M10872 9453 c0 -10 -19 -126 -41 -258 -23 -132 -49 -285 -57 -340 -9
-55 -18 -113 -21 -130 -2 -16 1 -43 8 -60 l12 -30 8 37 c5 23 5 48 -1 63 -14
37 -12 52 3 31 11 -15 19 23 56 251 24 147 45 287 47 311 2 24 6 52 9 63 8 23
-3 79 -15 79 -5 0 -9 -8 -8 -17z"/>
<path d="M10951 9362 c-2 -31 -4 -72 -5 -89 -1 -18 -4 -33 -8 -33 -5 0 -8 -13
-8 -29 0 -17 -5 -33 -11 -37 -7 -4 -9 0 -6 12 14 50 15 92 3 119 -14 33 -9 57
-65 -295 -40 -247 -45 -285 -37 -314 9 -38 24 -32 31 12 17 107 28 163 31 159
2 -2 -3 -50 -11 -107 -9 -56 -15 -110 -14 -119 1 -9 -3 -36 -10 -61 -12 -41
-12 -45 9 -62 25 -20 29 -21 49 -9 12 8 12 12 2 25 -7 9 -17 13 -22 10 -5 -3
-9 4 -9 15 0 11 -4 23 -10 26 -5 3 -2 23 10 48 10 23 23 67 29 97 l9 55 -5
-67 c-5 -70 4 -107 19 -72 5 12 7 1 5 -33 -1 -29 1 -49 4 -45 15 17 29 79 28
126 l-1 51 -14 -30 c-14 -29 -14 -29 -7 20 4 28 6 63 5 78 0 15 3 40 9 54 11
29 1 122 -11 103 -5 -7 -10 11 -12 41 -3 39 0 57 11 65 9 7 14 32 14 77 1 62
9 85 20 55 2 -7 2 -2 -1 12 -7 37 -8 140 -1 128 12 -19 16 7 7 40 -13 48 -23
39 -27 -26z"/>
<path d="M14100 9176 c0 -13 102 -177 139 -224 144 -182 352 -332 702 -508
137 -68 185 -88 318 -135 65 -22 87 -26 93 -17 18 28 -2 42 -122 86 -273 100
-643 317 -822 482 -73 66 -168 187 -208 262 -20 40 -29 48 -50 46 -14 -1 -31
1 -38 6 -7 4 -12 5 -12 2z"/>
<path d="M10304 8988 c4 -23 18 -69 32 -103 50 -118 63 -157 73 -223 6 -37 18
-92 27 -122 8 -30 20 -73 25 -94 5 -22 16 -51 23 -65 8 -14 25 -60 39 -101 40
-116 50 -142 78 -190 15 -25 36 -74 48 -110 20 -59 41 -107 117 -267 14 -29
45 -74 69 -100 25 -26 54 -72 66 -103 31 -78 36 -82 65 -63 27 18 29 35 11 89
-23 66 -29 96 -17 89 8 -5 9 5 4 32 -19 111 68 -109 132 -329 15 -54 31 -98
35 -98 12 0 20 68 18 163 -1 85 -15 190 -54 427 -31 189 -30 259 4 368 5 19 6
30 0 27 -5 -4 -9 1 -9 9 0 9 -4 16 -10 16 -5 0 -10 -5 -10 -12 0 -6 -2 -9 -5
-7 -2 3 0 20 5 38 7 25 6 33 -6 38 -19 7 -31 -4 -18 -17 6 -6 8 -25 6 -42 -5
-31 -5 -31 -18 17 -7 28 -10 68 -7 90 9 61 8 264 0 318 -5 26 -13 47 -19 47
-6 0 -7 -7 -3 -17 4 -10 9 -89 11 -175 l4 -158 -28 -31 -28 -32 -29 27 c-31
29 -44 22 -45 -24 0 -33 -11 -70 -19 -70 -4 0 -3 30 2 66 6 41 6 69 0 75 -6 6
-16 -26 -27 -87 -16 -88 -16 -99 -2 -113 15 -14 16 -12 16 17 0 18 5 32 11 32
6 0 8 -7 5 -16 -3 -9 -6 -27 -6 -40 0 -24 0 -24 -31 -9 -22 12 -29 21 -24 33
7 16 18 96 29 195 5 48 0 77 -14 77 -10 0 -24 -93 -24 -161 0 -52 -1 -56 -18
-45 -12 7 -18 23 -18 48 0 29 -6 41 -25 54 -19 13 -23 21 -18 44 4 23 0 34
-21 53 -15 14 -24 31 -21 39 9 23 -12 66 -35 73 -14 4 -19 12 -16 22 3 8 -6
31 -22 51 -25 33 -26 35 -6 30 l22 -6 -21 52 c-11 28 -22 53 -24 55 -1 2 -14
-9 -28 -25 l-26 -29 -25 30 c-14 17 -45 73 -70 125 -56 115 -88 160 -116 160
-19 0 -20 -4 -14 -42z"/>
<path d="M7500 14754 c-46 -20 -70 -43 -70 -67 0 -57 90 -171 148 -187 30 -8
43 -6 72 9 19 10 41 29 49 43 13 22 12 30 -9 73 -30 63 -77 115 -117 131 -38
16 -30 17 -73 -2z"/>
<path d="M22918 12018 c-20 -16 -38 -79 -38 -131 0 -32 3 -37 18 -33 9 2 63
17 120 32 82 22 102 30 102 45 0 32 -23 70 -51 85 -34 17 -129 18 -151 2z"/>
<path d="M29167 10255 c-15 -15 -45 -151 -35 -160 9 -9 240 58 245 71 8 21
-26 80 -53 93 -37 16 -139 14 -157 -4z"/>
<path d="M22595 10262 c-34 -8 -47 -38 -60 -131 -6 -46 -5 -53 8 -48 8 3 61
18 118 32 57 15 108 31 113 35 14 13 -13 77 -39 94 -29 19 -97 28 -140 18z"/>
<path d="M27627 10263 c-34 -5 -53 -44 -63 -129 -6 -49 -5 -57 8 -51 9 3 62
18 119 33 57 15 108 30 113 35 14 12 -13 76 -39 93 -27 18 -93 27 -138 19z"/>
<path d="M29180 8497 c-18 -9 -28 -26 -37 -62 -16 -70 -16 -118 0 -113 6 3 61
18 121 34 60 16 110 34 113 40 10 26 -26 85 -61 99 -43 18 -102 19 -136 2z"/>
<path d="M23684 8494 c-23 -5 -37 -43 -49 -126 -6 -40 -5 -48 9 -48 18 0 227
57 234 64 10 11 -11 65 -34 87 -19 17 -37 23 -82 25 -31 1 -66 0 -78 -2z"/>
<path d="M7333 4386 c-104 -34 -176 -98 -222 -196 -22 -46 -26 -69 -26 -145 0
-78 4 -98 28 -146 112 -229 413 -275 581 -88 93 103 116 259 58 382 -59 124
-165 196 -301 203 -48 3 -92 -1 -118 -10z"/>
<path d="M20794 3457 c-24 -21 -27 -31 -31 -112 -7 -121 8 -159 69 -176 24 -6
78 -9 122 -7 66 4 82 8 97 27 23 28 33 96 26 179 -4 56 -9 70 -32 89 -23 21
-36 23 -125 23 -89 0 -102 -2 -126 -23z m240 -29 c12 -16 16 -47 16 -110 0
-120 -8 -128 -130 -128 -122 0 -130 8 -130 128 0 127 5 132 130 132 91 0 100
-2 114 -22z"/>
<path d="M20861 3374 c-29 -36 -27 -76 5 -108 34 -33 73 -34 108 -1 53 49 19
135 -54 135 -30 0 -43 -6 -59 -26z"/>
<path d="M24253 3470 c-27 -11 -43 -40 -43 -79 0 -26 -4 -31 -25 -31 -20 0
-25 -5 -25 -25 0 -20 5 -25 25 -25 24 0 25 -2 25 -70 l0 -70 30 0 30 0 0 70
c0 62 2 70 19 70 17 0 31 18 31 41 0 5 -11 9 -25 9 -21 0 -25 5 -25 30 0 17 5
31 10 31 6 1 16 2 23 3 14 1 23 46 9 46 -6 0 -16 2 -24 4 -7 3 -23 1 -35 -4z"/>
<path d="M27548 3419 c-10 -5 -18 -18 -18 -28 0 -10 -3 -20 -6 -24 -8 -8 -73
19 -97 40 -17 16 -18 15 -14 -37 3 -30 10 -56 16 -58 6 -2 8 -8 5 -14 -4 -6 4
-19 17 -29 l23 -17 -34 -10 -35 -9 28 -12 c38 -15 59 -14 107 5 46 18 77 57
86 106 4 18 11 38 16 44 28 37 -47 71 -94 43z"/>
<path d="M10234 3239 c-14 -23 -7 -118 10 -144 14 -21 24 -26 49 -23 32 3 32
3 35 66 4 78 -14 112 -58 112 -16 0 -32 -5 -36 -11z"/>
<path d="M12704 3214 c-14 -76 15 -144 62 -144 29 0 44 27 44 80 0 67 -24 100
-72 100 -23 0 -28 -5 -34 -36z"/>
<path d="M29940 16668 c1 -330 194 -632 491 -772 108 -51 179 -68 317 -73 118
-5 193 3 285 29 l37 11 0 429 0 428 -565 0 -565 0 0 -52z"/>
<path d="M4460 2071 l0 -321 551 -2 c303 -2 553 0 555 3 2 4 -42 51 -99 106
-105 102 -247 214 -352 278 -148 90 -371 183 -537 225 -46 12 -91 23 -100 26
-17 5 -18 -15 -18 -315z"/>
</g>
</svg>
